<?xml version="1.0" encoding="UTF-8" standalone="no"?>
<svg
   xmlns:dc="http://purl.org/dc/elements/1.1/"
   xmlns:cc="http://creativecommons.org/ns#"
   xmlns:rdf="http://www.w3.org/1999/02/22-rdf-syntax-ns#"
   xmlns:svg="http://www.w3.org/2000/svg"
   xmlns="http://www.w3.org/2000/svg"
   xmlns:sodipodi="http://sodipodi.sourceforge.net/DTD/sodipodi-0.dtd"
   xmlns:inkscape="http://www.inkscape.org/namespaces/inkscape"
   version="1.1"
   id="Layer_1"
   x="0px"
   y="0px"
   width="100px"
   height="100px"
   viewBox="5.0 -10.0 100.0 135.0"
   enable-background="new 0 0 100 100"
   xml:space="preserve"
   inkscape:version="0.48.4 r9939"
   sodipodi:docname="art.svg"><metadata
     id="metadata15"><rdf:RDF><cc:Work
         rdf:about=""><dc:format>image/svg+xml</dc:format><dc:type
           rdf:resource="http://purl.org/dc/dcmitype/StillImage" /></cc:Work></rdf:RDF></metadata><defs
     id="defs13" /><sodipodi:namedview
     pagecolor="#ffffff"
     bordercolor="#666666"
     borderopacity="1"
     objecttolerance="10"
     gridtolerance="10"
     guidetolerance="10"
     inkscape:pageopacity="0"
     inkscape:pageshadow="2"
     inkscape:window-width="1366"
     inkscape:window-height="702"
     id="namedview11"
     showgrid="false"
     inkscape:zoom="2.36"
     inkscape:cx="50"
     inkscape:cy="50"
     inkscape:window-x="0"
     inkscape:window-y="27"
     inkscape:window-maximized="1"
     inkscape:current-layer="Layer_1" /><path
     d="m 18.230538,75.952374 c 1.248,-1.1 4.812,-1.129 6.06,-1.694 1.13,-0.513 3.862,-2.198 5.584,-2.317 1.724,-0.119 7.13,-2.02 8.021,-2.197 0.892,-0.178 1.544,-0.893 2.556,-0.893 1.011,0 3.443,-0.595 5.229,-0.595 1.781,0 1.544,0.418 1.841,0.953 0.298,0.533 0.831,0.949 0.894,1.661 0.06,0.714 -0.654,0.061 0.06,1.426 0.711,1.368 0.892,1.546 0.237,2.495 -0.655,0.952 0,0.714 0.474,1.161 0.478,0.443 -0.594,0.503 -0.594,0.503 v 0.713 c 0,0 0,0 -1.188,-0.06 -1.188,-0.059 -3.861,-0.297 -3.861,-0.297 l -1.129,-0.356 -0.892,0.469 c -1.96,-0.305 -7.368,0.483 -7.368,0.483 0,0 -1.365,0.475 0,0.295 1.367,-0.178 3.924,0.357 3.924,0.357 0.83,0.83 3.802,0.06 3.802,0.06 0.713,1.128 3.683,0.06 3.683,0.06 0.297,0.653 1.723,0.834 1.723,0.834 0,0 0,0.533 -0.176,2.672 -0.18,2.14 -1.367,5.764 -1.605,7.309 -0.236,1.545 -0.059,2.494 0.299,3.387 0.355,0.893 0.477,3.088996 0.477,3.088996 -1.013,-1.187996 -5.053,-10.752996 -5.053,-10.752996 0.119,1.248 3.207,10.218996 4.694,12.714996 1.485,2.495 1.782,3.625 1.724,4.276 -0.061,0.65299 -0.297,0.89199 0.178,1.72398 0.468,0.831 0.587,1.85999 0.587,1.85999 h -7.248 v -0.258 c -1.248,-2.91198 -0.894,-8.49797 -1.129,-9.44697 -0.238,-0.951 -0.238,-3.444996 -0.713,-3.860996 -0.477,-0.416 -4.039,-0.299 -4.039,-0.299 0.028,0.049 0.058,0.096 0.086,0.139 1.897,2.914 2.765,1.705 2.765,1.705 0,0 -0.119,-3.147 0,0.416 0.118,3.562996 0.832,3.384996 0.832,3.384996 0.712,2.079 0.831,8.21997 0.831,8.21997 h -19.784 v -0.675 c -0.178,-1.36399 0,-4.45697 0,-4.45697 -1.188,-1.899 -2.198,-5.108 -2.436,-6.117996 -0.238,-1.01 -0.773,-3.861 -0.713,-5.645 0.06,-1.782 -0.297,-1.428 -1.545,-2.496 -1.248,-1.069 0,-0.892 -0.238,-2.021 -0.237,-1.128 -0.119,-1.723 0.356,-2.495 0.475,-0.771 -0.535,-0.477 -1.842,-1.365 -1.306999,-0.893 -0.535,-1.485 -0.238,-1.545 0.297,-0.062 0.832,0.594 1.129,-0.654 0.297,-1.247 2.02,-0.832 2.02,-0.832 0.536,0.067 0.477,0.062 1.725,-1.037 z m 4.756,2.779 c 0,0 -4.103,2.24 -4.815,2.713 -0.713,0.477 -2.025,0.439 -2.674,0.301 -0.233,-0.053 -0.783,0.654 -0.475,1.425 0.319,0.796 1.723,-0.478 2.911,-1.01 1.188,-0.536 4.991,-3.505 6.417,-3.923 1.425,-0.416 -1.364,0.494 -1.364,0.494 z m -3.612,7.204 c 0.5,0.555 0.593,0.504 1.574,-0.269 0.98,-0.772 2.793,-4.843 2.793,-4.843 0,0 0.92,-1.069 -2.031,2.169 -2.951,3.237 -5.604,3.475 -5.604,3.475 1.236,1.572 3.268,-0.532 3.268,-0.532 z m 6.501,19.356966 c -1.693,-4.97097 -1.169,-9.28297 -1.169,-9.28297 0.267,-3.296996 4.572,-6.514996 4.572,-6.514996 -2.957,0.506 -4.459,3.459 -4.459,3.459 0.538,-3.388 2.321,-10.41 2.321,-10.41 -6.863,14.523996 -2.735,22.748966 -2.735,22.748966 m 9.167,-27.561966 c 2.14,-2.049 7.004,-2.922 7.004,-2.922 8.021,-0.803 7.934,-4.188 7.934,-4.188 0,0 -2.229,2.853 -7.129,3.387 -4.902,0.534 -10.517,3.922 -10.517,3.922 m -4.008,0.086 c 1.16,-4.345 6.557,-6.914 6.557,-6.914 -6.839,1.418 -7.192,6.353 -7.192,6.353 0,0 -0.089,0.712 0.208,0.741 -0.001,-0.001 0.352,0.099 0.427,-0.18 z"
     id="path3"
     inkscape:connector-curvature="0"
     style="fill:#000000" /><path
     d="m 25.894538,11.073373 c 2.585,0.981 1.872,3.536001 1.872,3.536001 1.486,2.347 -0.535,3.892 -0.891,4.902 -0.357,1.009 -0.417,-0.298 0.564,3.237 0.98,3.535 5.733,3.328 6.625,3.535 0.891,0.208 2.168,0 3,-0.534 0.832,-0.536 2.524,-0.446 2.524,-0.446 -1.366,0.208 -1.979,2.299 -1.979,2.299 -0.269,6.424 6.258,6.97 6.258,6.97 0,0 0,0 -0.623,-0.269 -0.625,-0.268 -2.441,-2.171 -3.377,-3.908 -0.963,-1.786 -0.813,-4.901 1.683,-4.885 3.487,0.021 3.03,6.089 3.119,6.802 0.089,0.713 -0.118,5.407 0.118,7.783 0.238,2.376 0.951,10.903 0.713,12.478 -0.237,1.574 -0.445,2.615 -0.028,4.337 0.414,1.724 1.248,10.249 1.011,10.188 -0.238,-0.06 -0.951,0 -4.308,0.327 -3.358,0.326 -4.25,1.365 -5.615,1.663 -1.368,0.297 -2.971,0.477 -3.655,0.771 -0.682,0.298 -2.702,1.158 -3.801,1.427 -1.1,0.269 -2.852,1.011 -3.387,1.278 -0.535,0.267 -1.337,0.711 -1.901,0.949 -0.564,0.237 -2.318,0.534 -2.911,0.563 -0.594,0.03 -1.278,0.356 -1.783,0.446 -0.505,0.088 -2.882,1.664 -2.882,1.664 -0.178,-4.77 2.14,-9.895 2.496,-10.34 0.356,-0.445 0.601,-2.808 1.047,-3.541 0.445,-0.736 3.052,-5.348 3.052,-5.505 0,-0.156 1.081,-5.832 -0.791,-7.725 -1.871,-1.894 -2.361,-3.409 -2.406,-3.744 -0.045,-0.332 -0.12,-2.911 -0.12,-2.911 -1.737,-0.423 -2.61,-1.973 -2.61,-1.973 0.334,2.162 1.56,2.287 1.56,2.496 0,0.209 0.119,1.263 0.089,2.451 -0.029,1.189 0.535,1.596 0.535,1.596 -0.038,-0.015 0.273,0.09 0,0 -1.292,-0.423 -3.108,-0.023 -3.108,-0.023 -3.750999,1.018 -2.744,3.73 -2.744,3.819 0,0.089 -0.474999,-2.228 3,-3.089 3.476,-0.861 4.635,1.217 4.575,1.901 -0.06,0.683 -0.504,3.03 -4.041,3.536 -3.535,0.504 -3.979999,-1.961 -3.979999,-1.961 0,0 -0.268,-1.575 -0.416,-7.873 -0.148,-6.298 2.643999,-8.05 3.237999,-8.348 0.594,-0.298 2.792,-2.108 4.07,-3.327 1.277,-1.217 0.684,-2.733 0.684,-2.733 0,0 -0.564,-1.306 -1.694,-3.98 -1.13,-2.674 -3.387,-2.526 -5.347,-3.922 -1.960999,-1.396 -1.217999,-3.742 -1.217999,-3.742 -0.416,-2.704 0.476,-3.298001 0.476,-3.298001 -0.03,-6.535 6.089999,-5.851 6.089999,-5.851 4.72,-2.703 7.217,2.974 7.217,2.974 z m 4.277,49.133001 c 0,0 0.382,1.172 1.318,0 0.001,0 -0.842,-0.268 -1.318,0 z"
     id="path5"
     inkscape:connector-curvature="0"
     style="fill:#000000" /><g
     transform="matrix(0.64325491,0,0,0.64325491,47.503035,14.318644)"
     id="g3"><path
       inkscape:connector-curvature="0"
       d="m 53.378356,64.903578 c 2.396512,1.064121 5.952842,3.589073 6.671679,7.591035 0.418488,2.32238 -0.510826,7.0859 -1.359574,10.676749 -1.366609,3.720684 -3.414133,6.241071 -6.113698,7.503417 -3.613501,1.689699 -7.576012,0.722053 -9.455626,0.07182 -2.402761,-1.773858 -3.241277,-5.982765 -3.330496,-9.309257 -0.105406,-3.887586 0.732013,-5.75122 0.732013,-5.75122 l 0.256702,-1.401688 c -0.359508,-2.000489 1.279304,-7.423995 2.557736,-9.125532 1.278253,-1.700553 4.257383,-1.186476 5.229302,-1.70284 1.360093,-0.720781 3.701776,-4.486551 4.395887,-5.634289 -9.968221,-0.559856 -13.90405,7.203134 -14.778343,9.295873 -1.36452,0.894831 -2.682899,2.709014 -2.105213,5.0392 -0.430173,0.383787 -0.892578,0.932464 -1.173306,1.677074 -0.233883,0.622045 -0.402704,1.566076 -0.05586,2.764159 -1.311254,1.697559 -4.337056,6.562064 -3.4389,14.425502 0.865236,7.588 -0.414515,9.341149 -1.174058,10.107859 -1.574499,0.30943 -6.819302,1.61396 -9.668005,5.70573 -0.628529,0.15125 -1.346866,0.44871 -2.05953,0.92614 l -2.139549,11.6827 49.940417,9.146 3.689311,-20.14496 c -1.063536,-2.4029 -2.337162,-5.02422 -3.532959,-6.81594 0.0215,-2.404464 0.155056,-14.463686 0.835315,-18.561175 0.383351,-2.309728 1.282542,-7.719242 0.210027,-12.965269 C 66.264201,63.992965 62.657332,60.000908 57.043617,58.473656 L 53.954986,57.90801 c -4.730523,5.307664 -1.353269,6.651026 -0.57663,6.995568 z m 2.333777,38.760512 c -0.11511,0.62855 0.02507,1.2398 0.341869,1.73598 -0.39761,0.23929 -0.696405,0.63291 -0.786476,1.12473 -0.04089,0.22328 -0.03303,0.44126 0.01142,0.65375 -0.597699,0.38259 -1.039352,1.00115 -1.177341,1.75461 -0.08377,0.4574 -0.04409,0.9069 0.09286,1.31931 -0.608101,0.33392 -1.071366,0.92616 -1.206112,1.66192 -0.069,0.37673 -0.04156,0.74876 0.06014,1.09271 -2.467553,0.63386 -5.632578,3.36641 -5.632578,3.36641 -5.217749,-0.55298 -16.654838,-4.58322 -16.408787,-8.5691 0.245067,-3.98606 12.928861,-10.288278 12.928861,-10.288278 0.08791,-0.480017 0.219374,-2.707779 0.306787,-4.33973 0.288275,0.06906 0.591583,0.133757 0.908315,0.191763 2.31549,0.424054 5.339372,0.493926 8.25882,-0.864379 1.398107,-0.650789 2.640572,-1.573056 3.730956,-2.752934 -0.747308,5.052026 -0.716973,11.342398 -0.716973,11.342398 l 0.628893,0.82377 c -0.677496,0.32426 -1.195279,0.95327 -1.340654,1.74707 z"
       id="path5-9" /><path
       inkscape:connector-curvature="0"
       d="m 77.433327,139.85302 c 0.298632,-0.12627 0.592029,-0.28501 0.871336,-0.47785 2.166784,-1.49513 2.710813,-4.46573 1.214158,-6.62974 -0.420049,-0.60964 -0.959942,-1.0867 -1.561991,-1.42977 1.266022,-2.48865 4.001986,-9.27887 3.002636,-19.98708 1.810742,0.0215 3.428517,-1.25694 3.765923,-3.0993 0.205182,-1.12036 -0.107008,-2.21348 -0.763983,-3.03934 2.045956,-1.01301 3.791917,-3.56321 4.379901,-6.773815 0.587804,-3.20962 -0.141255,-6.212072 -1.695423,-7.884402 0.907013,-0.539433 1.586333,-1.450971 1.791334,-2.570354 0.337046,-1.840392 -0.720501,-3.609848 -2.423323,-4.231772 4.193825,-8.566661 4.552851,-15.289975 4.367153,-18.639219 0.579664,-0.128683 1.143635,-0.36597 1.662683,-0.72433 2.166963,-1.496114 2.710632,-4.464741 1.214518,-6.631705 -0.191856,-0.279128 -0.410937,-0.531726 -0.646421,-0.755812 0.453092,-0.120348 0.898414,-0.320399 1.317016,-0.607692 1.738511,-1.199443 2.282664,-3.426857 1.214635,-4.972541 -1.065882,-1.546306 -3.341575,-1.826844 -5.080086,-0.627401 -0.414487,0.287029 -0.759733,0.634521 -1.033825,1.015376 -0.126712,-0.301763 -0.285636,-0.594176 -0.477492,-0.873304 -1.494327,-2.165619 -4.465906,-2.709828 -6.630722,-1.214338 -0.396669,0.27301 -0.732674,0.597794 -1.018721,0.955111 -1.782621,-1.029975 -5.705203,-2.726349 -11.721442,-2.338787 -0.29972,-1.472075 -1.457884,-2.686577 -3.025807,-2.973724 -1.12135,-0.205362 -2.211161,0.105401 -3.039971,0.761836 -1.01614,-2.045513 -3.564552,-3.79013 -6.776138,-4.378294 -3.20962,-0.587804 -6.210908,0.140451 -7.884041,1.693456 -0.53863,-0.90585 -1.452496,-1.583562 -2.570895,-1.788384 -1.56694,-0.286966 -3.083295,0.43773 -3.883285,1.708406 -5.492536,-2.494242 -9.758581,-2.298535 -11.790519,-1.967151 -0.138885,-0.435138 -0.340932,-0.858461 -0.614122,-1.254147 -1.496294,-2.16598 -4.464921,-2.709649 -6.631705,-1.214518 -0.279307,0.19284 -0.531725,0.410936 -0.755009,0.647585 -0.120347,-0.453092 -0.322006,-0.900742 -0.606887,-1.315853 -1.200427,-1.738691 -3.427038,-2.28168 -4.973705,-1.213831 -1.545684,1.06803 -1.825057,3.342918 -0.625434,5.080446 0.285685,0.416274 0.63416,0.7617 1.015195,1.034808 -0.302746,0.126533 -0.594979,0.284473 -0.875451,0.478117 -2.164816,1.49549 -2.708665,4.465101 -1.214518,6.631704 0.358541,0.518064 0.801276,0.942767 1.297715,1.268526 -1.358798,3.067404 -3.408522,9.48007 -2.521483,18.975197 -1.810742,-0.02154 -3.428697,1.257926 -3.7657428,3.098318 -0.205002,1.119383 0.1052208,2.212144 0.7631798,3.038184 -2.0479228,1.012649 -3.7909332,3.563388 -4.3783767,6.77104 -0.587984,3.210603 0.1402712,6.211891 1.6942589,7.885205 -0.9058487,0.53863 -1.5853486,1.451151 -1.7905305,2.571518 -0.3370459,1.840392 0.7203211,3.610831 2.4231435,4.232756 -4.7317006,9.660665 -4.5793354,16.977815 -4.2768109,19.755755 -0.6845535,0.10744 -1.3584727,0.36221 -1.9679345,0.78128 -2.1648161,1.49549 -2.7088453,4.46608 -1.2145184,6.6317 0.1931999,0.27734 0.4112968,0.52976 0.6474051,0.75599 -0.4529119,0.11937 -0.8995788,0.32121 -1.3158527,0.60689 -1.7377078,1.20061 -2.2824843,3.42588 -1.2154384,4.97138 1.0676693,1.54765 3.3425581,1.82702 5.0812495,0.6266 0.4141265,-0.28506 0.7605362,-0.63336 1.0336446,-1.01439 0.1260893,0.29961 0.2848333,0.59301 0.477853,0.87133 1.4951307,2.16678 4.4647415,2.71063 6.6317045,1.21452 0.727004,-0.50022 1.266484,-1.16999 1.611261,-1.92016 1.928048,1.03526 5.718651,2.49194 11.344796,2.13053 0.297393,1.47368 1.457704,2.68756 3.025627,2.97471 1.118399,0.20482 2.212144,-0.10522 3.038003,-0.7622 1.013813,2.04712 3.563388,3.79094 6.772024,4.37856 3.210603,0.58799 6.211712,-0.13929 7.885025,-1.69327 0.53845,0.90683 1.451332,1.58436 2.570715,1.78936 1.568906,0.28733 3.083918,-0.43558 3.884448,-1.70921 5.133899,2.33199 9.194715,2.3132 11.36335,2.02922 0.05771,0.82285 0.324818,1.64035 0.827365,2.36574 1.493966,2.16759 4.463577,2.71144 6.628754,1.21398 0.278947,-0.19087 0.531365,-0.40897 0.755632,-0.64544 0.121331,0.45327 0.322006,0.90075 0.606888,1.31586 1.200426,1.73869 3.427661,2.28382 4.973524,1.21481 1.546487,-1.06687 1.825501,-3.33979 0.625074,-5.07848 -0.284784,-0.42119 -0.629325,-0.76589 -1.011524,-1.0382 z M 68.847561,132.41061 12.63742,122.11639 25.909573,49.645682 67.209679,57.209308 82.119714,59.939905 68.847561,132.41061 z"
       id="path7"
       sodipodi:nodetypes="cccccscscsccsccccccccccscscscccccccccccccscscscccccccccccccscscscccccccccccccccc" /></g></svg>