<?xml version="1.0" encoding="UTF-8" standalone="no"?>
<svg
   xmlns:dc="http://purl.org/dc/elements/1.1/"
   xmlns:cc="http://creativecommons.org/ns#"
   xmlns:rdf="http://www.w3.org/1999/02/22-rdf-syntax-ns#"
   xmlns:svg="http://www.w3.org/2000/svg"
   xmlns="http://www.w3.org/2000/svg"
   xmlns:sodipodi="http://sodipodi.sourceforge.net/DTD/sodipodi-0.dtd"
   xmlns:inkscape="http://www.inkscape.org/namespaces/inkscape"
   version="1.1"
   id="Layer_1"
   x="0px"
   y="0px"
   width="75"
   height="74"
   viewBox="5 -10 75 99.9"
   enable-background="new 0 0 100 100"
   xml:space="preserve"
   inkscape:version="0.48.4 r9939"
   sodipodi:docname="back.svg"><metadata
     id="metadata26"><rdf:RDF><cc:Work
         rdf:about=""><dc:format>image/svg+xml</dc:format><dc:type
           rdf:resource="http://purl.org/dc/dcmitype/StillImage" /></cc:Work></rdf:RDF></metadata><defs
     id="defs24" /><sodipodi:namedview
     pagecolor="#ffffff"
     bordercolor="#666666"
     borderopacity="1"
     objecttolerance="10"
     gridtolerance="10"
     guidetolerance="10"
     inkscape:pageopacity="0"
     inkscape:pageshadow="2"
     inkscape:window-width="1366"
     inkscape:window-height="702"
     id="namedview22"
     showgrid="false"
     inkscape:zoom="2.36"
     inkscape:cx="-25.211864"
     inkscape:cy="50"
     inkscape:window-x="0"
     inkscape:window-y="27"
     inkscape:window-maximized="1"
     inkscape:current-layer="Layer_1" /><g
     id="Captions"
     transform="translate(0,-35.1)" /><g
     id="Layer_7"
     display="none"
     style="display:none"
     transform="translate(0,-35.1)" /><g
     id="Your_Icon"
     display="none"
     style="display:none"
     transform="translate(0,-35.1)"><path
       display="inline"
       d="m 50.002,32.008 c 9.916,0 17.989,8.07 17.989,17.992 0,9.92 -8.073,17.99 -17.989,17.99 -9.921,0 -17.995,-8.07 -17.995,-17.99 0,-9.922 8.074,-17.992 17.995,-17.992 m 0,-17.99 C 30.13,14.018 14.018,30.127 14.018,50 c 0,19.873 16.112,35.982 35.984,35.982 19.873,0 35.98,-16.109 35.98,-35.982 0,-19.873 -16.107,-35.982 -35.98,-35.982 l 0,0 z"
       id="path6"
       inkscape:connector-curvature="0"
       style="display:inline" /></g><g
     id="Layer_5"
     display="none"
     style="display:none"
     transform="translate(0,-35.1)"><path
       display="inline"
       d="m 50.463,22.014 c -19.869,0 -35.984,11.045 -35.984,24.674 0,6.475 3.667,12.341 9.612,16.748 l -4.027,14.551 20.54,-7.58 c 3.132,0.613 6.438,0.968 9.859,0.968 19.873,0 35.98,-11.05 35.98,-24.684 0,-13.632 -16.107,-24.677 -35.98,-24.677 z"
       id="path9"
       inkscape:connector-curvature="0"
       style="display:inline" /></g><g
     id="Layer_4"
     display="none"
     style="display:none"
     transform="translate(0,-35.1)"><rect
       x="15.209"
       y="32.137001"
       transform="matrix(-0.7071,-0.7071,0.7071,-0.7071,47.1318,113.7829)"
       display="inline"
       width="63.842999"
       height="29.986"
       id="rect12"
       style="display:inline" /><polygon
       display="inline"
       points="86.045,64.842 85.957,64.756 64.752,85.957 64.842,86.045 85.982,85.98 "
       id="polygon14"
       style="display:inline" /></g><path
     d="m 87.327034,-10.1 h -44.882 c -1.395,0 -2.804,0.535 -3.871,1.603 L -5.9479661,36.025 c -1.07,1.067 -1.605,2.47 -1.605,3.871 v 0.007 c 0,1.401 0.535,2.804 1.605,3.871 L 38.573034,88.296 c 1.067,1.066 2.477,1.604 3.871,1.604 h 44.883 c 2.828,0 5.12,-2.292 5.12,-5.12 V -4.981 c 0,-2.826 -2.292,-5.119 -5.12,-5.119 z"
     id="path16"
     inkscape:connector-curvature="0"
     style="fill:#cccccc;fill-opacity:1" /></svg>