<svg xmlns="http://www.w3.org/2000/svg" xmlns:xlink="http://www.w3.org/1999/xlink" version="1.1" id="Layer_1" x="0px" y="0px" viewBox="0 0 100 100" enable-background="new 0 0 100 100" xml:space="preserve" height="100px" width="100px">
<path d="M80.4,48.3c0-5.7-7.9-10.2-17.9-10.2c-2.8,0-5.3,0.3-7.6,1v-7.8c0-0.1,0-0.2,0-0.3c0-0.1,0-0.2,0-0.3V20.3  c0-5.7-7.9-10.2-17.9-10.2C26.9,10.1,19,14.6,19,20.3v10.2c0,0.1,0,0.2,0,0.3c0,0.1,0,0.2,0,0.3v10.2c0,0.1,0,0.2,0,0.3  c0,0.1,0,0.2,0,0.3v10.2c0,0.1,0,0.2,0,0.3c0,0.1,0,0.2,0,0.3V63c0,5.7,7.9,10.2,17.9,10.2c2.7,0,5.3-0.3,7.6-0.9v7.8  c0,5.7,7.9,10.2,17.9,10.2s17.9-4.5,17.9-10.2V69.9c0-0.1,0-0.2,0-0.3c0-0.1,0-0.2,0-0.3V59.1c0-0.1,0-0.2,0-0.3c0-0.1,0-0.2,0-0.3  V48.3z M23.7,27.3c0.1,0.1,0.3,0.2,0.4,0.2c0.4,0.3,0.9,0.5,1.4,0.7c0,0,0,0,0,0c0.5,0.2,1,0.4,1.5,0.6c0.2,0.1,0.4,0.1,0.5,0.2  c0.4,0.1,0.7,0.2,1.1,0.4c0.2,0.1,0.4,0.1,0.7,0.2c0.4,0.1,0.7,0.2,1.1,0.3c0.2,0.1,0.5,0.1,0.7,0.1c0.4,0.1,0.8,0.1,1.2,0.2  c0.2,0,0.5,0.1,0.7,0.1c0.4,0.1,0.9,0.1,1.3,0.1c0.2,0,0.4,0,0.6,0.1c0.7,0,1.3,0.1,2,0.1s1.4,0,2-0.1c0.2,0,0.4,0,0.6-0.1  c0.4,0,0.9-0.1,1.3-0.1c0.2,0,0.5-0.1,0.7-0.1c0.4-0.1,0.8-0.1,1.2-0.2c0.2,0,0.5-0.1,0.7-0.1c0.4-0.1,0.7-0.2,1.1-0.3  c0.2-0.1,0.4-0.1,0.7-0.2c0.4-0.1,0.7-0.2,1.1-0.4c0.2-0.1,0.4-0.1,0.5-0.2c0.5-0.2,1-0.4,1.5-0.6c0,0,0,0,0,0  c0.5-0.2,0.9-0.5,1.4-0.7c0.1-0.1,0.3-0.2,0.4-0.2c0.3-0.2,0.6-0.4,0.9-0.6c0,0,0.1-0.1,0.2-0.1v3.9c0,3.1-5.8,6.5-14.2,6.5  s-14.2-3.4-14.2-6.5v-3.9c0,0,0.1,0.1,0.2,0.1C23.1,26.9,23.4,27.1,23.7,27.3z M54.2,57.3c0.2,0.1,0.4,0.1,0.7,0.2  c0.4,0.1,0.7,0.2,1.1,0.3c0.2,0.1,0.5,0.1,0.7,0.1c0.4,0.1,0.8,0.1,1.2,0.2c0.2,0,0.5,0.1,0.7,0.1c0.4,0.1,0.9,0.1,1.3,0.1  c0.2,0,0.4,0,0.6,0.1c0.7,0,1.3,0.1,2,0.1s1.4,0,2-0.1c0.2,0,0.4,0,0.6-0.1c0.4,0,0.9-0.1,1.3-0.1c0.2,0,0.5-0.1,0.7-0.1  c0.4-0.1,0.8-0.1,1.2-0.2c0.2,0,0.5-0.1,0.7-0.1c0.4-0.1,0.7-0.2,1.1-0.3c0.2-0.1,0.4-0.1,0.7-0.2c0.4-0.1,0.7-0.2,1.1-0.4  c0.2-0.1,0.4-0.1,0.5-0.2c0.5-0.2,1-0.4,1.5-0.6c0,0,0,0,0,0c0.5-0.2,0.9-0.5,1.4-0.7c0.1-0.1,0.3-0.2,0.4-0.2  c0.3-0.2,0.6-0.4,0.9-0.6c0,0,0.1-0.1,0.2-0.1v3.9c0,3.1-5.8,6.5-14.2,6.5c-3.6,0-6.8-0.6-9.2-1.6c0,0-0.1,0-0.1-0.1  c-2.7-1.1-4.5-2.7-4.9-4.2c0,0,0,0,0-0.1c0-0.1,0-0.2,0-0.3c0,0,0,0,0,0l0-4.2c0.2,0.1,0.3,0.2,0.5,0.4c0,0,0,0,0,0c0,0,0,0,0.1,0  c0.1,0,0.1,0.1,0.2,0.1c0,0,0,0,0,0c0.2,0.1,0.3,0.2,0.5,0.3c0,0,0,0,0,0c0.2,0.1,0.3,0.2,0.5,0.3c0,0,0.1,0,0.1,0  c0.1,0,0.1,0.1,0.2,0.1c0.4,0.2,0.8,0.4,1.3,0.6c0,0,0,0,0,0c0.1,0,0.2,0.1,0.3,0.1c0.2,0.1,0.5,0.2,0.7,0.3  c0.2,0.1,0.3,0.1,0.5,0.2C53.4,57.1,53.8,57.2,54.2,57.3z M44.6,57.6c-2.3,0.7-4.9,1.1-7.6,1.1c-8.4,0-14.2-3.4-14.2-6.5v-3.9  c3.3,2.4,8.4,3.9,14.2,3.9c2.7,0,5.3-0.3,7.6-0.9V57.6z M76.7,69.3c0,3.1-5.8,6.5-14.2,6.5c-8.1,0-13.9-3.2-14.2-6.2c0,0,0,0,0,0  l0-4.2C49.1,66,50,66.5,51,67c0,0,0,0,0,0c0.2,0.1,0.3,0.2,0.5,0.2c0.1,0,0.2,0.1,0.3,0.1c3,1.2,6.6,2,10.7,2c5.9,0,11-1.5,14.2-3.9  V69.3z M45.9,44.3c-0.2,0.2-0.3,0.5-0.5,0.7c-0.1,0.1-0.1,0.2-0.2,0.4c-0.1,0.2-0.2,0.4-0.2,0.5c-0.1,0.2-0.1,0.4-0.2,0.5  c0,0.1-0.1,0.1-0.1,0.2c-2.3,0.8-5,1.2-7.8,1.2c-8.4,0-14.2-3.4-14.2-6.5v-3.9c3.3,2.4,8.4,3.9,14.2,3.9s11-1.5,14.2-3.9v2.8  c-2.3,1-4.1,2.4-5.2,3.9C46,44.3,45.9,44.3,45.9,44.3z M76.7,48.3c0,3.1-5.8,6.5-14.2,6.5c-3.9,0-7.2-0.7-9.6-1.8c0,0,0,0,0,0  c-0.3-0.1-0.6-0.3-0.9-0.4c0,0,0,0,0,0c0,0,0,0,0,0c0,0,0,0,0,0c0,0-0.1,0-0.1-0.1c0,0,0,0-0.1,0l-0.4-0.2C51.2,52.1,51.1,52,51,52  c0,0,0,0,0,0c0,0-0.1,0-0.1-0.1c0,0,0,0-0.1,0c-0.2-0.1-0.4-0.3-0.6-0.5c0,0,0,0,0,0c0,0,0,0-0.1,0c0,0,0,0,0,0  c-0.1-0.1-0.2-0.2-0.3-0.3c0,0,0,0,0,0c-0.1-0.1-0.2-0.2-0.3-0.2c0,0,0,0,0,0c0,0,0,0,0,0c0,0,0,0,0,0c-0.1-0.1-0.2-0.2-0.3-0.3  c-0.1-0.1-0.2-0.2-0.2-0.3c0,0,0,0,0,0c0,0,0,0,0,0c-0.1-0.1-0.1-0.2-0.2-0.3c-0.1-0.1-0.1-0.2-0.2-0.3c0,0,0,0,0,0  c-0.2-0.4-0.3-0.7-0.3-1.1c0,0,0,0,0,0c0,0,0,0,0,0c0-0.1,0-0.2,0-0.2c0,0,0,0,0,0c0,0,0,0,0,0c0-0.2,0-0.4,0.1-0.7c0,0,0,0,0,0  c0.5-1.6,2.4-3.1,5.3-4.2c0,0,0.1,0,0.1,0c2.4-0.9,5.3-1.5,8.8-1.5C70.9,41.8,76.7,45.2,76.7,48.3z M36.9,13.8  c8.4,0,14.2,3.4,14.2,6.5c0,3.1-5.8,6.5-14.2,6.5s-14.2-3.4-14.2-6.5C22.7,17.3,28.5,13.8,36.9,13.8z M22.7,63v-3.9  c3.3,2.4,8.4,3.9,14.2,3.9c2.7,0,5.3-0.3,7.6-0.9v6.4c-2.3,0.7-4.9,1.1-7.6,1.1C28.5,69.5,22.7,66.1,22.7,63z M76.7,80.1  c0,3.1-5.8,6.5-14.2,6.5s-14.2-3.4-14.2-6.5v-3.9c3.3,2.4,8.4,3.9,14.2,3.9s11-1.5,14.2-3.9V80.1z"/>
</svg>