<?xml version="1.0" encoding="UTF-8" standalone="no"?>
<svg
   xmlns:dc="http://purl.org/dc/elements/1.1/"
   xmlns:cc="http://creativecommons.org/ns#"
   xmlns:rdf="http://www.w3.org/1999/02/22-rdf-syntax-ns#"
   xmlns:svg="http://www.w3.org/2000/svg"
   xmlns="http://www.w3.org/2000/svg"
   xmlns:sodipodi="http://sodipodi.sourceforge.net/DTD/sodipodi-0.dtd"
   xmlns:inkscape="http://www.inkscape.org/namespaces/inkscape"
   version="1.1"
   id="Your_Icon"
   x="0px"
   y="0px"
   width="100px"
   height="100px"
   viewBox="5.0 -10.0 100.0 135.0"
   enable-background="new 0 0 100 100"
   xml:space="preserve"
   inkscape:version="0.48.4 r9939"
   sodipodi:docname="noun_32440_cc.svg"><metadata
     id="metadata23"><rdf:RDF><cc:Work
         rdf:about=""><dc:format>image/svg+xml</dc:format><dc:type
           rdf:resource="http://purl.org/dc/dcmitype/StillImage" /></cc:Work></rdf:RDF></metadata><defs
     id="defs21" /><sodipodi:namedview
     pagecolor="#ffffff"
     bordercolor="#666666"
     borderopacity="1"
     objecttolerance="10"
     gridtolerance="10"
     guidetolerance="10"
     inkscape:pageopacity="0"
     inkscape:pageshadow="2"
     inkscape:window-width="1366"
     inkscape:window-height="702"
     id="namedview19"
     showgrid="false"
     inkscape:zoom="2.36"
     inkscape:cx="50"
     inkscape:cy="50"
     inkscape:window-x="0"
     inkscape:window-y="27"
     inkscape:window-maximized="1"
     inkscape:current-layer="Your_Icon" /><g
     id="g3"><g
       id="g5"><g
         id="g7"><g
           id="g9" /></g><g
         id="g11" /></g></g><path
     d="m 108.74815,61.699705 c -0.003,-0.06795 0,-0.135908 -0.008,-0.202555 -0.009,-0.06665 -0.0274,-0.129373 -0.0431,-0.192099 -0.0118,-0.05489 -0.0196,-0.107158 -0.0379,-0.160737 -0.0314,-0.0967 -0.0784,-0.190793 -0.12545,-0.283576 -0.0105,-0.01568 -0.0131,-0.03267 -0.0222,-0.04966 L 100.68899,47.16546 c -0.12415,-0.216929 -0.2875,-0.397268 -0.47045,-0.542323 -0.003,-0.0013 -0.005,-0.0026 -0.008,-0.0039 -0.19079,-0.147669 -0.409034,-0.256133 -0.639024,-0.31886 -0.003,0 -0.004,-0.0013 -0.004,-0.0013 l -33.139183,-8.990793 1.26237,-4.287614 c 0.0026,-0.01046 0,-0.0196 0.0026,-0.03006 0.05358,-0.188179 0.07057,-0.382893 0.06011,-0.582833 0,-0.03136 -0.0026,-0.06142 -0.0039,-0.09409 -0.01568,-0.155509 -0.04313,-0.311019 -0.101931,-0.465221 -0.0091,-0.02875 -0.02744,-0.05358 -0.0379,-0.08102 -0.01438,-0.03006 -0.02875,-0.0575 -0.04312,-0.08756 -0.08886,-0.177725 -0.194714,-0.338462 -0.328007,-0.474369 -0.01307,-0.01176 -0.02744,-0.02222 -0.0392,-0.03398 -0.148976,-0.143748 -0.317553,-0.265281 -0.507039,-0.35153 -0.0052,-0.0026 -0.0065,-0.0065 -0.01176,-0.0091 l -14.31043,-6.527534 c -0.112385,-0.05227 -0.228691,-0.09017 -0.34761,-0.118919 -0.06534,-0.01438 -0.13068,-0.0183 -0.19602,-0.02614 -0.05488,-0.0078 -0.111078,-0.0196 -0.165963,-0.02222 -0.04835,-0.0013 -0.09409,0.0065 -0.142442,0.0091 -0.07449,0.0039 -0.147668,0.0039 -0.219542,0.01568 -0.0026,0 -0.0026,0 -0.0026,0 -0.114999,0.0196 -0.231304,0.04966 -0.342382,0.09017 L 9.2744362,39.79641 c -0.0039,0.0013 -0.0065,0.0065 -0.01176,0.0078 -0.219542,0.08364 -0.422096,0.207781 -0.598514,0.368518 -0.0039,0.0052 -0.0065,0.01176 -0.01438,0.01699 -0.165964,0.158123 -0.311019,0.350223 -0.411643,0.573686 L 1.7132843,55.068995 c -0.091476,0.196021 -0.1424414,0.407722 -0.1594298,0.624651 -0.00261,0.01438 -0.00523,0.02744 -0.00784,0.04182 -0.00915,0.189486 0.014375,0.382893 0.06534,0.574993 0.00784,0.03136 0.014375,0.06273 0.024829,0.09409 0.00915,0.02875 0.011761,0.05881 0.024829,0.08756 0.043124,0.116305 0.1136917,0.211702 0.1764182,0.313632 0.031363,0.05358 0.053579,0.111078 0.091476,0.162044 0.1254529,0.165963 0.2770418,0.307098 0.4495396,0.419483 0.00653,0.0052 0.011761,0.01438 0.019602,0.0196 L 49.219428,87.408405 c 0.02222,0.01437 0.04574,0.01829 0.06795,0.03136 0.06795,0.0379 0.135907,0.07187 0.205167,0.100624 0.04051,0.0183 0.08102,0.03267 0.125453,0.04835 0.04182,0.01437 0.07972,0.03136 0.12284,0.04312 0.152895,0.04051 0.311018,0.06534 0.470448,0.06665 0,0 0.0026,0.0013 0.0039,0.0013 h 0.0026 l 0,0 0,0 h 0.0026 c 0,0 0,0 0.0026,0 0.06795,0 0.135908,-0.0039 0.202554,-0.01045 0.09932,-0.01307 0.1921,-0.03659 0.284883,-0.06273 0.02222,-0.0052 0.04051,-0.0065 0.06273,-0.01307 0.02483,-0.0091 0.04574,-0.0183 0.07057,-0.02744 0.0065,-0.0039 0.01699,-0.0013 0.02483,-0.0052 0.02875,-0.01045 0.05358,-0.02875 0.08102,-0.04182 0.08625,-0.03659 0.168577,-0.07841 0.248292,-0.12676 0.0196,-0.01307 0.04312,-0.02352 0.06273,-0.03528 0.0026,-0.0026 0.0052,-0.0026 0.0078,-0.0039 0.02352,-0.01699 0.04313,-0.0392 0.06795,-0.0575 0.05358,-0.04051 0.103237,-0.08233 0.151589,-0.129374 0.02483,-0.02483 0.05358,-0.04443 0.0771,-0.07057 0.01699,-0.01829 0.03136,-0.0392 0.04835,-0.05881 0.03528,-0.04312 0.07187,-0.08886 0.105851,-0.135907 0.02875,-0.04051 0.0575,-0.08102 0.08364,-0.12284 0.01176,-0.02222 0.02483,-0.04182 0.03659,-0.06403 0.02222,-0.04051 0.0392,-0.08102 0.0575,-0.122839 0.02483,-0.05489 0.04835,-0.109771 0.06795,-0.165964 0.0065,-0.02222 0.0196,-0.04182 0.02614,-0.06534 0,-0.0039 0.0052,-0.0078 0.0052,-0.01307 l 4.24057,-14.415324 8.119156,14.165725 c 0.0052,0.01176 0.01829,0.01699 0.02222,0.02744 0.02222,0.03398 0.04051,0.07187 0.06534,0.104544 0.0392,0.0575 0.08494,0.108464 0.131987,0.160736 0.03006,0.03659 0.06273,0.0771 0.0954,0.111079 0.04313,0.0392 0.08886,0.07579 0.133294,0.111078 0.02222,0.01699 0.04051,0.03267 0.06273,0.04966 0.0026,0.0013 0.0052,0.0026 0.0078,0.0039 0.02222,0.01699 0.04051,0.0379 0.06534,0.05358 0.0026,0.0026 0.0078,0.0026 0.01045,0.0039 0.133293,0.08886 0.282269,0.155509 0.436471,0.206474 0.02744,0.0078 0.05358,0.02091 0.07972,0.02744 0.0052,0.0013 0.01045,0.0052 0.01568,0.0078 0.01699,0.0039 0.03006,0.0026 0.04835,0.0065 0.138521,0.03267 0.284883,0.0575 0.436472,0.0575 l 0,0 c 0.03528,0 0.07057,-0.0013 0.105851,-0.0026 0.08886,-0.0052 0.176418,-0.02352 0.262667,-0.04182 0.02875,-0.0052 0.05881,-0.0052 0.08625,-0.01307 0.135907,-0.03398 0.26528,-0.08364 0.386813,-0.146362 0.01699,-0.0091 0.03267,-0.02091 0.05097,-0.02744 0.0091,-0.0065 0.0196,-0.0078 0.02744,-0.01307 L 107.82555,63.338433 c 0.0497,-0.02744 0.0902,-0.06665 0.13591,-0.09801 0.0314,-0.02222 0.0614,-0.04051 0.0889,-0.06403 0.13983,-0.111078 0.26136,-0.236531 0.35937,-0.376359 0.017,-0.02222 0.0288,-0.04704 0.0431,-0.07187 0.16988,-0.262667 0.27573,-0.563231 0.29795,-0.87425 0.004,-0.05096 -0.003,-0.10193 -0.003,-0.154202 z m -14.472831,-12.996138 -8.153132,4.674428 -4.674428,-8.15444 12.82756,3.480012 z M 81.599348,52.94675 68.770481,49.465432 76.926227,44.791004 81.599348,52.94675 z M 10.84129,43.988628 19.392997,47.88943 6.9391822,52.541642 10.84129,43.988628 z m 50.226904,-11.663201 -12.453815,4.650906 3.902108,-8.551707 8.551707,3.900801 z m -17.571249,10.51975 4.045857,35.84033 -20.435757,-29.719273 16.3899,-6.121057 z m -15.719511,1.914464 3.900801,-8.551707 8.554321,3.900801 -12.455122,4.650906 z m 16.376832,-6.936501 -8.5504,-3.900802 12.453816,-4.652212 -3.903416,8.553014 z M 23.317321,45.605141 14.764308,41.70434 27.218123,37.052127 23.317321,45.605141 z M 23.525103,50.304398 43.487798,79.33368 7.5180952,56.283014 23.525103,50.304398 z M 51.028041,76.517523 47.074967,41.508319 63.085895,35.528397 51.028041,76.517523 z m 6.656845,-9.48999 4.512385,-15.345766 1.467537,25.78188 -5.979922,-10.436114 z m 6.967864,-19.473951 -0.820671,-1.428334 1.549866,-5.259875 7.427858,2.015088 -8.157053,4.673121 z M 65.963472,52.546869 82.468371,57.02397 67.498963,79.541461 65.963472,52.546869 z M 71.855838,79.68521 86.238492,58.047195 102.09784,62.349185 71.855838,79.68521 z m 18.385386,-24.394058 8.151828,-4.674428 4.675748,8.154439 -12.827576,-3.480011 z"
     id="path13"
     inkscape:connector-curvature="0"
     style="fill:#000000" /></svg>