<?xml version="1.0" encoding="UTF-8" standalone="no"?>
<svg
   xmlns:dc="http://purl.org/dc/elements/1.1/"
   xmlns:cc="http://creativecommons.org/ns#"
   xmlns:rdf="http://www.w3.org/1999/02/22-rdf-syntax-ns#"
   xmlns:svg="http://www.w3.org/2000/svg"
   xmlns="http://www.w3.org/2000/svg"
   xmlns:sodipodi="http://sodipodi.sourceforge.net/DTD/sodipodi-0.dtd"
   xmlns:inkscape="http://www.inkscape.org/namespaces/inkscape"
   version="1.1"
   x="0px"
   y="0px"
   width="100px"
   height="100px"
   viewBox="3.458 -10.276 100.0 135.0"
   enable-background="new -1.542 -0.276 100 100"
   xml:space="preserve"
   id="svg2"
   inkscape:version="0.48.4 r9939"
   sodipodi:docname="hoard.svg"><metadata
     id="metadata28"><rdf:RDF><cc:Work
         rdf:about=""><dc:format>image/svg+xml</dc:format><dc:type
           rdf:resource="http://purl.org/dc/dcmitype/StillImage" /><dc:title /></cc:Work></rdf:RDF></metadata><sodipodi:namedview
     pagecolor="#ffffff"
     bordercolor="#666666"
     borderopacity="1"
     objecttolerance="10"
     gridtolerance="10"
     guidetolerance="10"
     inkscape:pageopacity="0"
     inkscape:pageshadow="2"
     inkscape:window-width="1366"
     inkscape:window-height="702"
     id="namedview26"
     showgrid="false"
     inkscape:zoom="4.72"
     inkscape:cx="73.847754"
     inkscape:cy="47.220067"
     inkscape:window-x="0"
     inkscape:window-y="27"
     inkscape:window-maximized="1"
     inkscape:current-layer="svg2" /><defs
     id="defs4" /><path
     d="m 34.296,22.038932 c 1.038,-0.495 1.563,0.635 2.474,0.544 0.752,-0.076 1.421,-0.489 2,0.02 0.6,0.527 1.157,0.914 2.004,1.144 2.841,0.777 2.348,-3.551 4.208,-1.555 -0.472,1.621 -1.724,1.937 -3.911,1.875 -0.049,0.287 0.168,0.303 0.179,0.531 -0.555,0.083 -0.723,-0.221 -0.884,-0.531 -0.057,1.65 2.73,1.985 5.129,1.769 -0.493,-0.214 -1.023,-0.393 -1.238,-0.886 0.15,-0.378 0.435,-0.626 1.06,-0.53 -0.076,-0.218 -0.227,-0.361 -0.529,-0.352 1.406,-0.349 5.016,-2.492 5.483,0 0.305,-0.285 0.384,-0.796 0.352,-1.417 -0.343,-0.361 -0.552,-0.862 -1.238,-0.883 0.32,-0.508 0.667,-0.987 1.063,-1.415 -0.311,-0.301 -0.979,0.546 -1.769,0.354 2.335,-4.781 7.017,1.858 1.63,9.938 -3.813,5.718 -9.865,16.094 -8.817,25.244 0.878,7.665 5.123,11.08 13.384,12.402 11.734,1.879 1.068,16.038 5.922,13.218 0.205,-0.119 11.168,4.97 6.691,7.271 -17.844,9.169 -28.329,-1.891 -27.224,-2.349 1.911,-0.791 4.133,3.606 15.858,9.947 8.096,4.378988 15.799,8.478988 31.811,6.472988 8.798,-1.103 12.268,-6.678988 11.4,-15.600988 -0.178,3.627 -7.28,7.402 -10.1,8.179 -0.261,0.071 3.061,1.621 2.851,1.797 -3.346,2.787988 -20.297,0.246 -28.129,-5.659 -10.925,-8.24 -17.332,-14.354 -22.592,-14.354 -18.294,0 -13.381,17.082 -3.522,21.928 9.748,4.791988 24.005,4.094988 32.869,1.533988 14.869,-4.295988 16.998,-7.854988 16.521,-20.486988 -0.33,-8.758 -10.935,-10.388 -13.878,-14.704 -2.479,-3.636 -6.774,-7.081 -7.137,-10.033 -1.868,-15.23 -10.013,-2.936 -10.013,-14.032 0,-6.115 2.548,-9.026 3.202,-15.285 0.099,-0.73 0.767,-0.93 1.112,-0.148 0,0 0.184,-1.327 -0.52,-1.74 -0.299,-2.208 0.937,-2.588 1.667,-1.06 -0.205,-2.598 -0.591,-3.29 -2.621,-3.495 -0.982,-2.275 1.272,-2.275 2.222,-1.094 -0.22,-2.618 -2.149,-3.021 -4.451,-2.312 -1.923,-1.562 1.938,-1.96 3.357,-1.194 -0.875,-3.555 -5.181,-2.178 -8.311,-1.635 3.237,-1.378 6.521,-4.1499997 4.955,-9.1999996 0.046,1.022 -0.066,1.65 -0.179,2.478 -0.641,4.7669996 -7.224,2.7289998 -9.727,5.8359996 -0.942,0.624 -1.767,0.675 -2.832,1.061 -0.977,0.355 -1.925,0.739 -2.651,1.417 -0.783,0.727 -0.743,2.103 -1.415,3.007 -0.668,0.901 -2.002,1.055 -2.83,1.769 0.82,1.666 2.276,2.227 4.335,2.069 -0.789,-0.504 -0.875,-0.341 -1.151,-1.361 0.318,-0.25 1.042,0.601 1.769,0.53 0.83,-0.023 -0.365,-0.402 0,-1.062 0.523,-0.295 1.06,-1.091 2.474,-0.886 1.297,0.359 0.494,1.343 0.494,1.343 -0.562,-0.819 -2.364,-0.403 -2.564,1.219 -0.235,1.919 -2.182,2.129 -3.875,0.165 -0.314,-0.368 -1.893,-2.584 -4.24,-0.931 1.09,-0.417 2.388,-0.463 2.674,0.983 -1.258,0.247 -1.601,-1.021 -2.802,0.146 z m 8.807,-5.241 c -0.354,0.704 -1.386,0.734 -1.946,1.238 0.048,-0.9 1.537,-1.287 1.946,-1.238 z"
     id="path6"
     inkscape:connector-curvature="0" /><path
     d="m 69.719,57.222932 c 0,0 -5.758,-9.336 4.304,-7.68 13.539,2.228 9.74,9.332 9.74,9.332 4.584,1.956 9.626,7.104 5.165,14.704 8.547,2.81 -1.967,20.769 -1.967,20.769 18.279,-13.168 16.881,-38.056 12.827,-48.359 -7.352,-18.687 -20.641,-27.524 -31.018,-30.346 -0.904,-0.246 -0.961,-1.294 -2.038,-1.682 -0.709,-0.256 -0.277,-2.792 -2.549,-0.603 -3.346,0.743 -0.785,3.428 -0.785,3.428 -0.206,-1.115 -0.536,-1.941 1.198,-2.272 1.109,-0.211 1.499,0.618 1.145,3.249 -0.317,2.36 1.101,4.692 1.464,5.814 0.414,1.277 6.879,20.818 -3.603,21.401 0,0 -2.537,-0.182 -4.284,-0.619 -1.746,-0.438 0.571,-2.075 -4.488,-2.803 0,0 2.205,25.297 11.583,30.701 2.043,1.176 -10e-4,-15.964 3.306,-15.034 z"
     id="path8"
     inkscape:connector-curvature="0" /><path
     d="m 46.754,61.023932 c 0,0 -6.734,-4.993 -15.568,0.101 -11.887,6.854 -6.246,8.537 -6.246,8.537 -3.602,3.446 -6.507,10.04 0.345,15.581 -7.01,5.641 9.073,18.424988 9.073,18.424988 C 12.612,97.782932 5.238,74.317932 5.402,63.245932 c 0.298,-20.079 9.623,-33.031 18.34,-39.326 0.76,-0.548 0.444,-1.55 1.314,-2.292 0.574,-0.489 -0.724,-2.71 2.173,-1.462 3.393,-0.482 1.943,2.932 1.943,2.932 -0.2,-1.116 -0.182,-2.006 -1.921,-1.705 -1.113,0.193 -1.186,1.106 0.073,3.444 1.128,2.097 0.624,4.779 0.678,5.957 0.063,1.341 -2.003,23.463 8.012,20.316 5.629,-2.456 7.147,-1.528 10.468,-6.856 0.952,-1.528 3.658,-2.726 7.375,-1.275 10e-4,0 8.384,6.661 -7.103,18.045 z"
     id="path10"
     inkscape:connector-curvature="0" /><path
     d="m 66.745,69.902932 c -6.443,2.479 -13.08,-2.726 -18.275,-0.619 -5.195,2.107 -7.499,5.947 -6.879,9.417 0.619,3.47 27.137,15.522 29.987,15.646"
     id="path12"
     inkscape:connector-curvature="0" /><path
     d="m 68.108,79.737932 c 5.006,-4.755 -1.205,-11.218 2.93,-15.003 4.134,-3.787 8.591,-4.218 11.458,-2.167 2.867,2.051 5.784,21.103 4.672,23.73"
     id="path14"
     inkscape:connector-curvature="0" /><path
     d="m 36.826,35.861932 c -0.254,-1.109 0.51,-0.943 1.067,0.005 0.083,-2.313 -1.533,-2.408 -3.553,-1.489 1.598,1.919 0.141,4.529 1.753,3.998 -0.027,0.017 -0.058,0.039 -0.086,0.055 0.628,-0.264 1.258,-0.528 1.885,-0.793 -0.257,-0.677 -0.599,-1.313 -1.066,-1.776 z"
     id="path16"
     inkscape:connector-curvature="0" /><path
     d="m 38.741,56.892932 c -1.778,-6.051 0.787,-10.827 0.899,-12.474 1.231,-0.804 1.074,0.019 2.158,0 1.442,-1.302 1.094,-3.089 0.619,-4.75 -0.146,0.737 -0.791,2.277 -1.529,2.148 -1.452,-1.836 -0.866,-2.313 -1.248,-4.337 -0.863,-0.314 -0.689,-0.723 -1.582,-0.847 -0.255,-0.129 -1.92,0.765 -3.159,0.599 -0.597,-0.768 -0.228,-0.917 0.113,-0.729 -0.173,-0.115 -0.043,-2.688 -2.282,0.472 1.101,1.2 0.063,1.083 1.797,1.826 -0.089,-0.006 -0.208,0.694 0.167,1.456 0.375,0.762 1.375,2.542 1.568,2.943 -0.461,3.503 -2.918,9.568 -3.552,11.709 -0.991,5.123 -0.311,8.675 2.065,11.318 0,0 -0.141,-2.077 2.35,-2.479 3.034,-0.487 16.181,2.223 17.706,0.826 12.562,-11.507 -15.084,-8.708 -16.09,-7.681 z"
     id="path18"
     inkscape:connector-curvature="0" /><path
     d="m 40.091,36.772932 c 0,0 2.063,0.998 1.5,2.617 1.086,-0.417 0.867,-3.983 -2.448,-4.957 -0.835,1.556 -2.85,1.982 -1.642,3.5 -0.029,-0.011 1.22,1.021 0.867,0.661 0.588,0.346 1.028,1.319 1.614,1.664 -1.163,-2.52 -0.335,-3.026 0.109,-3.485 z"
     id="path20"
     inkscape:connector-curvature="0" /></svg>