<?xml version="1.0" encoding="utf-8"?>
<!-- Generator: Adobe Illustrator 19.2.1, SVG Export Plug-In . SVG Version: 6.00 Build 0)  -->
<svg version="1.0" id="Layer_1" xmlns="http://www.w3.org/2000/svg" xmlns:xlink="http://www.w3.org/1999/xlink" x="0px" y="0px"
	 viewBox="0 0 250 250" enable-background="new 0 0 250 250" xml:space="preserve">
<path fill="#0A2232" d="M211.628,250H38.372C17.18,250,0,232.82,0,211.628V38.372C0,17.18,17.18,0,38.372,0h173.256
	C232.82,0,250,17.18,250,38.372v173.256C250,232.82,232.82,250,211.628,250z"/>
<g>
	<path fill="#EA6E29" d="M158.836,220.475c-1.323,0-2.614-0.26-3.834-0.773c-1.377-0.578-2.583-1.441-3.555-2.535h-46.033
		c-0.973,1.094-2.18,1.958-3.56,2.537c-1.215,0.512-2.504,0.771-3.828,0.771h-14.39c-1.643,0-3.229-0.41-4.715-1.219
		c-3.19-1.73-5.172-5.051-5.172-8.663v-12.161l0.124-0.598c0.052-0.348,0.12-0.675,0.204-1.001l0.037-0.139
		c0.078-0.281,0.159-0.526,0.253-0.782c0.108-0.295,0.233-0.589,0.374-0.88l0.294-0.742l3.33-3.449l1.345-1.128v-16.545
		c-3.53-1.535-5.961-5.065-5.961-9.066v-11.388c0-0.522,0.042-1.035,0.13-1.566l0.043-0.341l0.243-0.941l0.145-0.404
		c0.58-1.688,1.633-3.213,3.031-4.368l5.456-4.495c1.483-1.212,3.274-1.969,5.144-2.19c0.547-1.833,1.622-3.485,3.125-4.745
		l2.475-2.075c0.673-0.564,1.413-1.031,2.213-1.396l0.076-0.147l0.008-0.055c0.221-1.731,0.946-3.357,2.104-4.723
		c0.579-1.03,1.289-1.969,2.104-2.792c-3.153-6.65-6.456-13.62-9.492-20.037c-0.456,0.419-11.824,10.866-11.824,10.866L68.83,86.108
		l6.043-5.47c0.051-0.046,1.29-1.168,3.315-3.019c-0.604-0.347-1.459-0.795-2.655-1.345c-2.123-0.978-6.076-2.797-7.862-7.705
		c-2.064-5.672,0.381-9.813,2.347-13.143c0.95-1.608,2.131-3.608,3.265-6.04c0.986-2.118,1.878-4.723,2.594-6.816
		c1.779-5.192,3.459-10.094,9.42-12.264c1.425-0.518,2.867-0.781,4.286-0.781c3.979,0,7.299,2.002,10.812,4.122
		c1.922,1.157,4.276,2.576,6.371,3.553c2.429,1.132,4.618,1.904,6.378,2.525c1.384,0.49,2.889,1.021,4.34,1.804
		c8.039-7.338,8.757-7.779,10.902-8.56c1.365-0.497,2.777-0.749,4.198-0.749c1.824,0,3.618,0.41,5.334,1.217
		c4.641,2.185,6.229,6.246,6.995,8.358c1.382,1.325,4.401,3.94,6.686,5.723l0.154,0.12c7.142,5.575,16.031,12.514,19.884,23.094
		c5.064,13.914,2.646,24.652-0.274,31.209c-3.825,8.591-10.91,15.298-19.438,18.402c-0.154,0.056-0.307,0.11-0.46,0.164
		c0.268,0.474,0.506,0.967,0.712,1.475c4.497,0.13,8.279,3.536,8.851,8.025l0.019,0.152c0.815,0.369,1.58,0.848,2.269,1.424
		l2.49,2.09c1.499,1.252,2.57,2.901,3.116,4.735c1.866,0.219,3.65,0.969,5.116,2.168l5.475,4.511
		c1.397,1.147,2.454,2.676,3.052,4.417c0.058,0.152,0.158,0.462,0.24,0.782l0.117,0.456l0.044,0.308
		c0.099,0.558,0.147,1.103,0.147,1.665v11.549c0,4.001-2.431,7.53-5.961,9.066v16.385l1.342,1.126l3.309,3.415l0.308,0.757
		c0.147,0.302,0.277,0.608,0.389,0.917c0.083,0.223,0.164,0.469,0.239,0.733l0.038,0.141c0.092,0.354,0.16,0.682,0.209,1.013
		l0.115,0.529l0.012,0.943v11.305c0,3.611-1.984,6.932-5.178,8.667c-1.483,0.805-3.068,1.215-4.709,1.215H158.836"/>
	<path fill="#0A2232" d="M158.831,217.475c-0.923,0-1.822-0.182-2.673-0.539c-1.368-0.575-2.48-1.556-3.216-2.77h-49.033
		c-0.736,1.215-1.849,2.196-3.221,2.772c-0.845,0.355-1.744,0.537-2.667,0.537h-14.39c-1.135,0-2.24-0.287-3.281-0.854
		c-2.223-1.207-3.606-3.518-3.606-6.028V198.74l0.081-0.386c0.036-0.271,0.087-0.52,0.151-0.768l0.029-0.109
		c0.052-0.183,0.109-0.354,0.174-0.533c0.085-0.232,0.186-0.464,0.301-0.693l0.121-0.303l2.809-2.909l2.295-1.926V170.92
		c-3.362-0.454-5.961-3.339-5.961-6.818v-11.387c0-0.372,0.032-0.744,0.099-1.133l0.027-0.21l0.159-0.619l0.099-0.274
		c0.415-1.208,1.146-2.269,2.119-3.073l5.452-4.493c1.247-1.02,2.798-1.573,4.384-1.573h1.441v-0.1c0-2.042,0.898-3.966,2.463-5.275
		l2.476-2.077c0.892-0.747,1.955-1.252,3.081-1.476l0.263-2.035c0.392-3.071,3.032-5.396,6.141-5.396h46.956
		c3.109,0,5.749,2.325,6.142,5.408l0.263,2.023c1.126,0.224,2.187,0.729,3.076,1.473l2.487,2.087
		c1.558,1.303,2.456,3.226,2.456,5.269v0.1h1.441c1.586,0,3.137,0.553,4.366,1.559l5.464,4.502c0.973,0.798,1.707,1.862,2.125,3.077
		c0.054,0.146,0.119,0.349,0.173,0.557l0.074,0.29l0.029,0.2c0.073,0.404,0.109,0.796,0.109,1.189v11.549
		c0,3.478-2.6,6.363-5.961,6.817v20.032l2.295,1.926l2.797,2.886l0.128,0.317c0.118,0.235,0.221,0.474,0.31,0.715
		c0.061,0.166,0.118,0.337,0.17,0.52l0.029,0.109c0.066,0.251,0.117,0.503,0.152,0.761l0.074,0.338l0.007,0.64v11.269
		c0,2.51-1.382,4.821-3.61,6.03c-1.037,0.564-2.143,0.851-3.277,0.851H158.831"/>
	<path fill="#C8581A" d="M153.658,139.428l-1.081-8.343c-0.044-0.339-0.332-0.592-0.674-0.592h-46.956
		c-0.341,0-0.63,0.253-0.673,0.592l-1.081,8.343v2.197l50.464-0.608V139.428z"/>
	<path fill="#AA3F0F" d="M168.633,208.653v-55.956c0-0.4-0.176-0.78-0.482-1.039l-14.493-12.25h-50.464l-14.493,12.25
		c-0.306,0.259-0.482,0.639-0.482,1.039v55.956H168.633"/>
	<path fill="#C8581A" d="M152.926,141.408l13.707,11.586v53.66H90.219v-53.66l13.707-11.586H152.926 M153.658,139.408h-50.464
		l-14.493,12.25c-0.306,0.259-0.482,0.639-0.482,1.039v55.956h80.414v-55.956c0-0.4-0.176-0.78-0.482-1.039L153.658,139.408z"/>
	<path fill="#D9BCA3" d="M153.448,137.792h3.519c0.321,0,0.632,0.113,0.878,0.319l2.482,2.083c0.309,0.259,0.488,0.642,0.488,1.046
		v4.217l-7.157-6.03L153.448,137.792z"/>
	<path fill="#D9BCA3" d="M99.388,198.56v12.036c0,0.755-0.612,1.366-1.366,1.366h-14.39c-0.756,0-1.37-0.613-1.37-1.369v-11.272
		c0-0.405,0.179-0.789,0.49-1.049l5.467-4.588v4.876H99.388"/>
	<path fill="#D9BCA3" d="M157.464,198.56v12.036c0,0.755,0.612,1.366,1.367,1.366h14.389c0.756,0,1.369-0.613,1.369-1.369v-11.272
		c0-0.405-0.179-0.789-0.489-1.049l-5.468-4.588v4.876H157.464"/>
	<path fill="#EA6E29" d="M168.633,208.653v-55.905c0-0.377-0.306-0.682-0.683-0.682H88.902c-0.377,0-0.682,0.306-0.682,0.682v55.905
		H168.633"/>
	<path fill="#D3622A" d="M126.015,191.908c-0.098,0-0.19-0.058-0.23-0.153c-2.252-5.366-2.896-11.19-1.862-16.844
		c0.333-1.821,0.842-3.62,1.513-5.347c0.052-0.129,0.195-0.188,0.324-0.143c0.129,0.051,0.192,0.195,0.143,0.324
		c-0.66,1.697-1.16,3.465-1.487,5.255c-1.017,5.558-0.383,11.284,1.831,16.561c0.054,0.127-0.007,0.273-0.134,0.327L126.015,191.908
		z"/>
	<path fill="#D3622A" d="M133.586,202.868l-0.174-0.07c-1.994-1.935-3.734-4.067-5.169-6.336c-0.074-0.118-0.039-0.272,0.077-0.345
		c0.119-0.072,0.272-0.04,0.345,0.077c1.415,2.236,3.129,4.338,5.095,6.244c0.1,0.097,0.101,0.255,0.006,0.354L133.586,202.868"/>
	<path fill="#D3622A" d="M137.226,199.724l-0.164-0.062c-6.507-5.651-9.583-13.455-8.225-20.877
		c1.376-7.525,7.072-13.763,15.238-16.685c0.125-0.046,0.273,0.02,0.319,0.151c0.047,0.13-0.022,0.272-0.152,0.319
		c-7.995,2.861-13.571,8.956-14.914,16.304c-1.325,7.246,1.689,14.876,8.062,20.41c0.104,0.089,0.115,0.248,0.025,0.352
		L137.226,199.724"/>
	<path fill="#D3622A" d="M153.092,199.691c-1.898,0-3.74-0.16-5.508-0.479c-6.085-1.096-10.705-4.001-13.011-8.178
		c-0.066-0.121-0.022-0.273,0.098-0.34c0.123-0.067,0.273-0.022,0.34,0.098c2.231,4.043,6.728,6.859,12.661,7.928
		c2.821,0.51,5.841,0.604,8.972,0.287c0.151-0.017,0.26,0.087,0.274,0.224c0.014,0.137-0.086,0.26-0.224,0.274
		C155.476,199.628,154.274,199.691,153.092,199.691"/>
	<path fill="#D3622A" d="M135.224,173.809l-0.184-0.082c-0.094-0.101-0.086-0.26,0.017-0.353c3.766-3.423,9.071-6.008,14.939-7.279
		c2.917-0.632,5.825-0.915,8.663-0.84c0.138,0.004,0.247,0.118,0.244,0.257c-0.004,0.136-0.115,0.243-0.25,0.243h-0.007
		c-2.793-0.078-5.666,0.205-8.544,0.829c-5.783,1.253-11.007,3.796-14.709,7.16L135.224,173.809"/>
	<path fill="#D3622A" d="M134.206,189.947c-0.098,0-0.191-0.058-0.23-0.154c-0.285-0.686-0.509-1.4-0.665-2.123
		c-0.486-2.25-0.338-4.553,0.441-6.846c0.044-0.131,0.187-0.204,0.316-0.156c0.131,0.044,0.201,0.186,0.156,0.316
		c-0.749,2.206-0.893,4.42-0.426,6.58c0.15,0.693,0.365,1.379,0.638,2.037c0.054,0.127-0.007,0.273-0.135,0.326L134.206,189.947z"/>
	<path fill="#D3622A" d="M141.072,174.57l-0.195-0.094c-0.086-0.107-0.068-0.266,0.039-0.352c2.133-1.707,4.6-3.144,7.333-4.274
		c4.517-1.864,9.209-2.631,13.207-2.153c0.137,0.016,0.235,0.141,0.219,0.277c-0.015,0.137-0.146,0.227-0.277,0.219
		c-3.914-0.465-8.519,0.287-12.957,2.12c-2.689,1.111-5.116,2.525-7.212,4.203L141.072,174.57"/>
	<path fill="#D3622A" d="M138.943,176.491l-0.175-0.071c-0.099-0.097-0.101-0.255-0.004-0.354c0.28-0.286,0.574-0.571,0.879-0.851
		c0.102-0.092,0.26-0.086,0.354,0.016c0.093,0.102,0.086,0.26-0.016,0.354c-0.299,0.273-0.585,0.551-0.859,0.831L138.943,176.491z"
		/>
	<path fill="#D3622A" d="M145.85,192.447c-5.219,0-9.387-1.829-10.802-5.253c-1.171-2.835-0.318-6.263,2.404-9.652
		c0.088-0.108,0.244-0.125,0.352-0.039c0.108,0.087,0.125,0.244,0.039,0.352c-2.602,3.241-3.431,6.49-2.332,9.148
		c2.207,5.345,11.601,6.56,20.937,2.702c0.368-0.15,0.73-0.307,1.086-0.47c0.121-0.06,0.273-0.002,0.331,0.124
		c0.057,0.125,0.002,0.273-0.124,0.331c-0.362,0.165-0.729,0.325-1.103,0.479C152.911,191.707,149.167,192.447,145.85,192.447"/>
	<path fill="#D3622A" d="M158.651,189.226c-0.091,0-0.179-0.051-0.224-0.139c-0.061-0.123-0.011-0.273,0.112-0.335
		c0.952-0.476,1.88-1,2.757-1.56c0.117-0.074,0.271-0.04,0.346,0.076c0.074,0.117,0.04,0.272-0.076,0.346
		c-0.893,0.569-1.836,1.103-2.804,1.586L158.651,189.226"/>
	<path fill="#D3622A" d="M144.766,190.207c-2.526,0-4.462-0.733-5.334-2.242c-2.032-3.52,2.496-9.954,10.094-14.34
		c4.098-2.365,8.428-3.762,11.881-3.831h0.005c0.135,0,0.247,0.108,0.25,0.245c0.003,0.137-0.108,0.252-0.245,0.255
		c-3.371,0.067-7.614,1.439-11.642,3.765c-7.359,4.249-11.805,10.375-9.91,13.657c1.897,3.283,9.426,2.496,16.783-1.754
		c1.677-0.968,3.23-2.049,4.617-3.213c0.106-0.089,0.263-0.075,0.353,0.03c0.089,0.106,0.075,0.263-0.03,0.352
		c-1.41,1.183-2.987,2.28-4.689,3.264C152.557,188.902,148.136,190.207,144.766,190.207"/>
	<path fill="#D3622A" d="M141.986,184.774l-0.066-0.009c-0.133-0.036-0.212-0.173-0.176-0.307c0.823-3.055,4.76-6.995,10.027-10.037
		c3.304-1.908,6.719-3.22,9.619-3.696c0.142-0.024,0.264,0.071,0.287,0.207c0.022,0.136-0.071,0.265-0.207,0.287
		c-2.84,0.466-6.196,1.757-9.448,3.635c-5.08,2.932-9.016,6.845-9.795,9.735C142.197,184.701,142.096,184.774,141.986,184.774"/>
	<path fill="#D3622A" d="M143.168,188.02l-0.119-0.03c-0.347-0.189-0.638-0.423-0.864-0.696c-0.088-0.106-0.073-0.264,0.033-0.352
		c0.104-0.088,0.262-0.074,0.352,0.033c0.187,0.224,0.428,0.418,0.718,0.575c0.121,0.066,0.166,0.218,0.101,0.339L143.168,188.02"/>
	<path fill="#D3622A" d="M145.915,188.58c-0.663,0-1.27-0.064-1.808-0.194c-0.134-0.033-0.216-0.168-0.183-0.302
		c0.033-0.134,0.166-0.215,0.302-0.184c2.954,0.723,8.147-0.708,13.226-3.641c1.359-0.784,2.647-1.641,3.828-2.546
		c0.11-0.083,0.267-0.063,0.35,0.046c0.084,0.109,0.064,0.266-0.046,0.351c-1.199,0.919-2.504,1.788-3.883,2.583
		C153.424,187.161,149.044,188.58,145.915,188.58"/>
	<path fill="#D3622A" d="M151.401,185.075c-1.331,0-2.348-0.397-2.818-1.211c-1.088-1.887,1.231-5.195,5.28-7.534
		c2.793-1.611,5.791-2.343,7.63-1.864c0.134,0.035,0.214,0.172,0.18,0.305c-0.036,0.134-0.172,0.211-0.305,0.179
		c-1.726-0.446-4.571,0.264-7.255,1.814c-3.679,2.125-6.013,5.262-5.097,6.851c0.916,1.588,4.8,1.138,8.482-0.989
		c1.491-0.861,2.787-1.888,3.749-2.972c0.09-0.104,0.248-0.114,0.353-0.02c0.104,0.091,0.112,0.249,0.021,0.353
		c-0.996,1.122-2.335,2.185-3.872,3.073C155.446,184.387,153.152,185.075,151.401,185.075"/>
	<path fill="#D3622A" d="M98.774,172.119l-0.201-0.1c-4.479-6.019-6.916-11.221-8.171-14.524c-0.05-0.129,0.016-0.273,0.145-0.323
		c0.129-0.052,0.273,0.016,0.323,0.145c1.244,3.274,3.659,8.431,8.104,14.403c0.083,0.111,0.06,0.268-0.051,0.35L98.774,172.119"/>
	<path fill="#D3622A" d="M106.904,181.285l-0.17-0.066c-1.173-1.084-2.17-2.115-2.799-2.787c-1.921-2.058-3.726-4.215-5.362-6.412
		c-0.083-0.111-0.06-0.268,0.051-0.35c0.111-0.084,0.268-0.06,0.35,0.051c1.626,2.182,3.417,4.326,5.326,6.369
		c0.624,0.667,1.611,1.689,2.773,2.762c0.102,0.094,0.108,0.252,0.014,0.353L106.904,181.285"/>
	<path fill="#D3622A" d="M115.881,186.497c-2.066,0-4.814-1.48-8.167-4.4c-0.104-0.091-0.115-0.249-0.024-0.353
		c0.092-0.104,0.25-0.114,0.353-0.024c3.213,2.798,5.924,4.277,7.839,4.277c0.138,0,0.25,0.112,0.25,0.25
		S116.019,186.497,115.881,186.497z"/>
	<path fill="#D3622A" d="M118.637,185.373l-0.176-0.072c-0.099-0.098-0.099-0.256-0.002-0.354c0.184-0.186,0.349-0.393,0.49-0.615
		c0.493-0.774,0.728-1.748,0.698-2.894c-0.004-0.139,0.105-0.253,0.243-0.257h0.007c0.135,0,0.246,0.107,0.25,0.243
		c0.032,1.248-0.229,2.316-0.776,3.176c-0.161,0.253-0.349,0.488-0.557,0.698L118.637,185.373z"/>
	<path fill="#D3622A" d="M119.537,179.263c-0.112,0-0.214-0.076-0.242-0.19c-0.172-0.692-0.401-1.422-0.722-2.299
		c-0.742-2.045-2.856-6.53-6.113-12.972c-0.062-0.124-0.014-0.274,0.109-0.336c0.126-0.062,0.274-0.014,0.336,0.109
		c2.278,4.505,5.191,10.421,6.139,13.028c0.325,0.893,0.56,1.641,0.735,2.349c0.034,0.134-0.048,0.269-0.182,0.303L119.537,179.263"
		/>
	<path fill="#D3622A" d="M115.384,178.523c-2.068,0-6-2.972-9.149-6.112c-2.849-2.844-5.36-5.874-7.46-9.005
		c-0.076-0.115-0.046-0.27,0.068-0.348c0.114-0.076,0.27-0.046,0.348,0.068c2.081,3.104,4.57,6.11,7.397,8.931
		c4.051,4.039,8.133,6.599,9.315,5.839c0.367-0.24,0.8-1.112-0.423-4.246c-0.504-1.293-1.747-3.811-3.696-7.484
		c-0.064-0.122-0.019-0.273,0.104-0.338c0.121-0.063,0.273-0.018,0.338,0.104c1.958,3.691,3.209,6.227,3.721,7.537
		c1.044,2.678,1.119,4.265,0.229,4.846C115.96,178.456,115.693,178.523,115.384,178.523"/>
	<path fill="#D3622A" d="M105.878,169.975l-0.188-0.085c-3.717-4.23-5.483-8.157-6.205-10.123c-0.048-0.129,0.018-0.273,0.148-0.32
		c0.13-0.05,0.272,0.019,0.32,0.148c0.71,1.933,2.448,5.797,6.111,9.965c0.092,0.104,0.081,0.262-0.022,0.353L105.878,169.975"/>
	<path fill="#D3622A" d="M110.626,173.636l-0.055-0.001c-0.138-0.007-0.245-0.124-0.238-0.261c0.007-0.138,0.144-0.234,0.261-0.238
		c0.215,0.013,0.258-0.058,0.296-0.109c0.106-0.142,0.289-0.661-0.312-2.418c-0.557-1.628-2.682-6.089-3.9-8.604
		c-0.06-0.125-0.008-0.274,0.115-0.334c0.124-0.062,0.273-0.009,0.334,0.115c1.222,2.525,3.358,7.008,3.924,8.661
		c0.506,1.479,0.584,2.421,0.238,2.88C111.182,173.47,110.981,173.636,110.626,173.636"/>
	<path fill="#D3622A" d="M108.251,169.781l-0.096-0.008c-1.076-0.179-3.708-3.281-4.164-5.631c-0.026-0.135,0.062-0.267,0.198-0.293
		c0.143-0.033,0.268,0.061,0.293,0.197c0.444,2.288,3.047,5.116,3.756,5.233c0.2-0.246-0.34-2.117-0.773-2.618
		c-0.09-0.104-0.078-0.262,0.026-0.352c0.104-0.091,0.262-0.078,0.353,0.026c0.408,0.473,1.197,2.53,0.821,3.2
		C108.574,169.694,108.426,169.781,108.251,169.781"/>
	<path fill="#D3622A" d="M114.547,202.869c-0.097,0-0.188-0.055-0.229-0.149c-1.675-3.832-4.668-6.588-8.008-7.372
		c-0.134-0.031-0.218-0.166-0.186-0.301c0.031-0.133,0.165-0.22,0.301-0.186c3.491,0.819,6.613,3.682,8.351,7.657
		c0.055,0.127-0.003,0.274-0.129,0.33L114.547,202.869"/>
	<path fill="#D3622A" d="M95.237,202.87l-0.073-0.011c-0.133-0.04-0.207-0.179-0.167-0.312c0.446-1.473,1.1-2.802,1.943-3.951
		c0.082-0.112,0.24-0.136,0.349-0.054c0.111,0.082,0.136,0.238,0.054,0.349c-0.809,1.103-1.437,2.382-1.867,3.801
		C95.444,202.801,95.344,202.87,95.237,202.87"/>
	<path fill="#D3622A" d="M115.794,202.906c-0.105,0-0.203-0.066-0.237-0.172c-0.708-2.149-1.669-4.103-2.855-5.807
		c-0.079-0.113-0.051-0.269,0.062-0.348c0.111-0.078,0.268-0.052,0.348,0.063c1.214,1.744,2.197,3.741,2.92,5.936
		c0.043,0.131-0.028,0.273-0.159,0.316L115.794,202.906"/>
	<path fill="#D3622A" d="M112.161,196.034l-0.195-0.094c-1.654-2.069-3.588-3.545-5.593-4.268c-0.13-0.047-0.197-0.19-0.15-0.32
		c0.048-0.13,0.189-0.195,0.32-0.15c2.091,0.754,4.102,2.284,5.813,4.426c0.086,0.108,0.068,0.266-0.039,0.352L112.161,196.034z"/>
	<path fill="#D3622A" d="M96.333,195.354l-0.142-0.044c-0.113-0.078-0.143-0.234-0.064-0.348c1.577-2.307,3.651-3.749,5.997-4.171
		c1.449-0.264,2.938-0.123,4.418,0.41c0.13,0.047,0.197,0.19,0.151,0.32c-0.048,0.13-0.189,0.196-0.32,0.15
		c-1.395-0.505-2.793-0.638-4.16-0.388c-2.211,0.397-4.172,1.768-5.673,3.962L96.333,195.354"/>
	<path fill="#D3622A" d="M93.64,202.87l-0.033-0.002c-0.137-0.018-0.233-0.144-0.215-0.281c0.147-1.106,0.374-2.178,0.675-3.184
		c0.039-0.132,0.181-0.21,0.311-0.168c0.133,0.039,0.208,0.179,0.168,0.311c-0.292,0.982-0.514,2.027-0.657,3.108
		C93.871,202.779,93.764,202.87,93.64,202.87"/>
	<path fill="#D3622A" d="M119.991,203.101c-0.107,0-0.207-0.069-0.239-0.178c-2.719-9.053-10.838-14.791-18.893-13.334
		c-5.556,1.002-10.063,5.176-12.054,11.166c-0.044,0.131-0.183,0.203-0.316,0.158c-0.131-0.044-0.202-0.186-0.158-0.316
		c2.05-6.166,6.701-10.465,12.441-11.5c8.304-1.499,16.667,4.387,19.459,13.682c0.04,0.133-0.035,0.272-0.167,0.311L119.991,203.101
		"/>
	<path fill="#D3622A" d="M120.98,202.934c-0.119,0-0.224-0.085-0.246-0.206c-0.799-4.433-2.783-8.461-5.738-11.647
		c-0.094-0.101-0.088-0.26,0.014-0.353c0.101-0.092,0.26-0.086,0.353,0.014c3.02,3.256,5.047,7.371,5.863,11.899
		c0.025,0.136-0.065,0.266-0.202,0.29L120.98,202.934"/>
	<path fill="#D3622A" d="M112.913,189.042l-0.157-0.055c-4.402-3.557-9.723-4.99-14.984-4.045c-0.133,0.025-0.266-0.066-0.29-0.202
		c-0.024-0.136,0.066-0.266,0.202-0.29c5.404-0.976,10.869,0.499,15.387,4.148c0.108,0.087,0.124,0.244,0.037,0.352L112.913,189.042
		"/>
	<path fill="#D3622A" d="M94.304,185.922c-0.099,0-0.193-0.06-0.233-0.158c-0.051-0.128,0.012-0.273,0.141-0.325
		c0.344-0.136,0.695-0.263,1.051-0.379c0.131-0.044,0.272,0.03,0.315,0.16c0.043,0.131-0.028,0.272-0.16,0.315
		c-0.345,0.113-0.686,0.236-1.021,0.369L94.304,185.922"/>
	<path fill="#D3622A" d="M88.567,189.557l-0.184-0.08c-0.094-0.102-0.088-0.26,0.014-0.354c1.357-1.26,2.873-2.304,4.502-3.104
		c0.122-0.06,0.273-0.009,0.335,0.114c0.061,0.124,0.01,0.274-0.114,0.335c-1.586,0.778-3.061,1.795-4.383,3.021L88.567,189.557z"/>
	<path fill="#D3622A" d="M95.005,184.857h2.064c0.138,0,0.25-0.112,0.25-0.25c0-0.138-0.112-0.25-0.25-0.25h-2.064
		c-0.139,0-0.25,0.112-0.25,0.25C94.755,184.745,94.866,184.857,95.005,184.857"/>
	<path fill="#C8581A" d="M168.633,208.654h1v-55.905c-0.001-0.93-0.753-1.682-1.682-1.683H88.902
		c-0.93,0.001-1.682,0.753-1.683,1.683v56.905h82.414v-1H168.633v-1H89.219l0-54.905h-0.317l0,0.317
		c0.176-0.001,0.317-0.142,0.317-0.317h-0.317l0,0.317h79.049v-0.317l-0.317,0c0.001,0.176,0.141,0.317,0.317,0.317v-0.317l-0.317,0
		v55.905H168.633v-1V208.654z"/>
	<path fill="#EF7432" d="M146.886,171.003c-1.9,0.903-3.65,1.966-5.224,3.173v5.9c1.333-1.627,3.109-3.264,5.224-4.762V171.003
		 M146.886,167.43c-1.834,0.571-3.587,1.274-5.224,2.092v4.027c1.582-1.178,3.332-2.216,5.224-3.099V167.43 M146.886,165.515
		l-5.224,1.631v1.818c1.641-0.805,3.393-1.496,5.224-2.058V165.515"/>
	<path fill="#DF6C33" d="M146.886,166.907c-1.83,0.562-3.583,1.253-5.224,2.058v0.557c1.636-0.818,3.39-1.521,5.224-2.092V166.907"
		/>
	<path fill="#DF6C33" d="M146.886,170.45c-1.892,0.883-3.642,1.921-5.224,3.099v0.627c1.574-1.207,3.324-2.27,5.224-3.173V170.45"/>
	<path fill="#EF7432" d="M141.662,197.369v1.184h3.13C143.684,198.224,142.639,197.829,141.662,197.369 M141.662,192.001v4.814
		c1.544,0.75,3.274,1.335,5.16,1.738h0.064v-6.13c-0.35,0.016-0.695,0.024-1.036,0.024
		C144.355,192.447,142.945,192.296,141.662,192.001 M141.662,189.723v1.784c1.263,0.3,2.66,0.453,4.148,0.453
		c0.354,0,0.713-0.009,1.076-0.026v-1.88c-0.742,0.102-1.452,0.153-2.12,0.153C143.587,190.207,142.536,190.047,141.662,189.723
		 M143.168,188.02l-0.119-0.03c-0.347-0.189-0.638-0.423-0.864-0.696c-0.088-0.106-0.073-0.264,0.033-0.352
		c0.046-0.039,0.102-0.058,0.158-0.058c0.072,0,0.143,0.031,0.194,0.091c0.187,0.224,0.428,0.418,0.718,0.575
		c0.121,0.066,0.166,0.218,0.101,0.339L143.168,188.02 M146.886,175.925c-2.16,1.559-3.943,3.253-5.224,4.908v8.381
		c0.842,0.355,1.888,0.529,3.081,0.529c0.671,0,1.389-0.055,2.143-0.165v-1.041c-0.335,0.028-0.66,0.042-0.972,0.042
		c-0.663,0-1.27-0.064-1.808-0.194c-0.134-0.033-0.216-0.168-0.183-0.302c0.028-0.115,0.13-0.191,0.244-0.191
		c0.019,0,0.039,0.002,0.058,0.007c0.509,0.125,1.085,0.185,1.714,0.185c0.303,0,0.619-0.014,0.946-0.042v-9.572
		c-2.457,2.114-4.173,4.316-4.659,6.119c-0.03,0.111-0.131,0.184-0.241,0.184l-0.066-0.009c-0.133-0.036-0.212-0.173-0.176-0.307
		c0.54-2.006,2.422-4.392,5.142-6.656V175.925"/>
	<path fill="#DF6C33" d="M141.662,196.815v0.554c0.976,0.459,2.022,0.855,3.13,1.184h2.029
		C144.936,198.15,143.207,197.565,141.662,196.815"/>
	<path fill="#DF6C33" d="M141.662,191.507v0.495c1.283,0.295,2.692,0.445,4.188,0.445c0.341,0,0.686-0.008,1.036-0.024v-0.489
		c-0.363,0.017-0.722,0.026-1.076,0.026C144.322,191.96,142.926,191.807,141.662,191.507"/>
	<path fill="#DF6C33" d="M141.662,189.214v0.509c0.874,0.324,1.924,0.483,3.103,0.483c0.668,0,1.378-0.051,2.12-0.153v-0.475
		c-0.754,0.109-1.472,0.165-2.143,0.165C143.55,189.743,142.504,189.569,141.662,189.214 M146.886,175.314
		c-2.115,1.497-3.891,3.135-5.224,4.762v0.757c1.281-1.656,3.064-3.349,5.224-4.908V175.314"/>
	<path fill="#DF6C33" d="M146.886,177.802c-2.719,2.264-4.601,4.65-5.142,6.656c-0.036,0.134,0.043,0.271,0.176,0.307l0.066,0.009
		c0.11,0,0.211-0.073,0.241-0.184c0.486-1.804,2.203-4.006,4.659-6.119V177.802"/>
	<path fill="#DF6C33" d="M142.376,186.884c-0.056,0-0.112,0.019-0.158,0.058c-0.106,0.088-0.121,0.246-0.033,0.352
		c0.226,0.273,0.517,0.507,0.864,0.696l0.119,0.03l0.22-0.131c0.065-0.121,0.02-0.273-0.101-0.339
		c-0.29-0.157-0.531-0.351-0.718-0.575C142.519,186.915,142.448,186.884,142.376,186.884"/>
	<path fill="#DF6C33" d="M144.168,187.892c-0.114,0-0.216,0.076-0.244,0.191c-0.032,0.134,0.05,0.269,0.183,0.302
		c0.538,0.131,1.145,0.194,1.808,0.194c0.312,0,0.636-0.014,0.972-0.042v-0.496c-0.327,0.028-0.643,0.042-0.946,0.042
		c-0.63,0-1.205-0.061-1.714-0.185C144.206,187.894,144.187,187.892,144.168,187.892"/>
	<path fill="#EF7432" d="M146.886,160.771h-5.224v2.277l0.301-0.093c0.684-0.31,1.388-0.594,2.111-0.853
		c0.027-0.01,0.055-0.015,0.082-0.015c0.086,0,0.171,0.046,0.217,0.123l2.512-0.776V160.771"/>
	<path fill="#DF6C33" d="M144.157,162.086c-0.028,0-0.056,0.005-0.082,0.015c-0.724,0.259-1.428,0.544-2.111,0.853l2.41-0.745
		C144.329,162.132,144.244,162.086,144.157,162.086"/>
	<path fill="#EF7432" d="M152.068,169.064c-1.118,0.31-2.24,0.69-3.353,1.137v3.906c0.266-0.163,0.537-0.324,0.811-0.483
		c0.841-0.485,1.691-0.93,2.542-1.33V169.064 M152.068,166.21c-0.655,0.107-1.311,0.231-1.967,0.374
		c-0.466,0.101-0.927,0.21-1.385,0.327v2.752c1.113-0.44,2.235-0.813,3.353-1.117V166.21 M152.068,163.897l-3.353,1.047v1.451
		c0.423-0.107,0.85-0.207,1.28-0.3c0.692-0.15,1.383-0.28,2.073-0.39V163.897 M149.028,160.771h-0.313v0.097L149.028,160.771"/>
	<path fill="#DF6C33" d="M152.068,165.704c-0.69,0.11-1.381,0.241-2.073,0.39c-0.43,0.093-0.857,0.193-1.28,0.3v0.516
		c0.458-0.117,0.92-0.227,1.385-0.327c0.656-0.142,1.312-0.267,1.967-0.374V165.704"/>
	<path fill="#DF6C33" d="M152.068,168.546c-1.117,0.304-2.24,0.677-3.353,1.117v0.539c1.113-0.448,2.235-0.827,3.353-1.137V168.546"
		/>
	<path fill="#EF7432" d="M152.068,191.663c-1.138,0.277-2.26,0.48-3.353,0.609v6.28h3.353V191.663 M152.068,188.692
		c-1.15,0.433-2.275,0.774-3.353,1.023v2.062c1.092-0.134,2.214-0.342,3.353-0.625V188.692 M152.068,187.325
		c-1.168,0.417-2.296,0.736-3.353,0.948v0.951c1.075-0.258,2.2-0.612,3.353-1.057V187.325 M148.715,184.064v3.706
		c1.053-0.217,2.182-0.544,3.353-0.972v-1.754c-0.23,0.021-0.453,0.031-0.667,0.031
		C150.184,185.075,149.229,184.743,148.715,184.064 M152.068,178.15c-2.443,1.939-3.784,4.195-3.052,5.464
		c0.37,0.641,1.225,0.95,2.355,0.95c0.222,0,0.455-0.012,0.698-0.036V178.15 M152.068,174.828c-0.015,0.009-0.031,0.018-0.046,0.026
		c-1.171,0.676-2.282,1.404-3.307,2.16v4.236c0.577-1.215,1.75-2.541,3.353-3.741V174.828 M152.068,172.847
		c-0.767,0.368-1.533,0.772-2.292,1.21c-0.361,0.208-0.714,0.421-1.061,0.637v1.695c0.953-0.684,1.977-1.345,3.056-1.969
		c0.099-0.057,0.198-0.114,0.296-0.169V172.847"/>
	<path fill="#DF6C33" d="M152.068,191.151c-1.139,0.284-2.261,0.492-3.353,0.625v0.496c1.093-0.13,2.215-0.332,3.353-0.609V191.151"
		/>
	<path fill="#DF6C33" d="M152.068,188.166c-1.152,0.446-2.278,0.799-3.353,1.057v0.491c1.077-0.248,2.203-0.59,3.353-1.023V188.166
		 M152.068,172.294c-0.851,0.401-1.701,0.845-2.542,1.33c-0.274,0.158-0.545,0.319-0.811,0.483v0.588
		c0.346-0.217,0.7-0.429,1.061-0.637c0.759-0.438,1.525-0.842,2.292-1.21V172.294"/>
	<path fill="#DF6C33" d="M152.068,174.252c-0.099,0.056-0.198,0.112-0.296,0.169c-1.08,0.624-2.104,1.285-3.056,1.969v0.625
		c1.025-0.756,2.135-1.484,3.307-2.16c0.015-0.009,0.031-0.018,0.046-0.026V174.252"/>
	<path fill="#DF6C33" d="M152.068,186.798c-1.171,0.428-2.299,0.755-3.353,0.972v0.503c1.056-0.212,2.184-0.531,3.353-0.948V186.798
		"/>
	<path fill="#DF6C33" d="M152.068,177.51c-1.603,1.2-2.776,2.526-3.353,3.741v2.813c0.514,0.679,1.468,1.011,2.685,1.011
		c0.215,0,0.438-0.01,0.667-0.031v-0.516c-0.242,0.024-0.475,0.036-0.698,0.036c-1.13,0-1.985-0.309-2.355-0.95
		c-0.732-1.269,0.609-3.524,3.052-5.464V177.51"/>
	<path fill="#B86131" d="M129.681,198.553h-9.56c0.461,1.259,0.82,2.566,1.072,3.91h11.879
		C131.835,201.232,130.701,199.923,129.681,198.553 M148.715,198.553h-1.829v0.014c0.259,0.055,0.521,0.106,0.786,0.154
		c0.345,0.062,0.693,0.118,1.043,0.168V198.553 M162.815,158.256h-5.652l-8.135,2.514h3.04v3.126l5.54-1.73h1.043v3.088
		c0.002,0,0.005,0,0.007,0c0.138,0.004,0.247,0.118,0.244,0.257c-0.004,0.136-0.115,0.243-0.25,0.243h0v1.809
		c0.135-0.002,0.27-0.004,0.404-0.004c0.823,0,1.625,0.046,2.401,0.139c0.137,0.016,0.235,0.141,0.219,0.277
		c-0.014,0.131-0.136,0.219-0.261,0.219c-0.005,0-0.011,0-0.016,0c-0.756-0.09-1.538-0.134-2.339-0.134
		c-0.135,0-0.271,0.001-0.407,0.004v2.029c0.963-0.18,1.887-0.281,2.756-0.299h0.005c0.135,0,0.247,0.108,0.25,0.245
		c0.003,0.137-0.108,0.252-0.245,0.255c-0.87,0.017-1.799,0.122-2.766,0.307v0.775c0.948-0.288,1.867-0.507,2.739-0.65
		c0.015-0.002,0.029-0.004,0.043-0.004c0.123,0,0.223,0.088,0.244,0.211c0.022,0.136-0.071,0.265-0.207,0.287
		c-0.895,0.147-1.841,0.376-2.819,0.679v2.582c0.562-0.105,1.095-0.16,1.587-0.16c0.459,0,0.881,0.047,1.255,0.145
		c0.134,0.035,0.214,0.172,0.18,0.305c-0.03,0.114-0.133,0.186-0.245,0.186c-0.02,0-0.04-0.002-0.06-0.007
		c-0.342-0.088-0.729-0.131-1.148-0.131c-0.483,0-1.011,0.057-1.568,0.167v6.914c1.008-0.69,1.891-1.453,2.595-2.246
		c0.048-0.056,0.116-0.085,0.185-0.085c0.059,0,0.119,0.021,0.167,0.064c0.104,0.091,0.112,0.249,0.021,0.353
		c-0.796,0.896-1.81,1.755-2.969,2.516v1.034c0.921-0.579,1.801-1.189,2.629-1.824c0.046-0.035,0.099-0.051,0.153-0.051
		c0.075,0,0.149,0.033,0.198,0.097c0.084,0.109,0.064,0.266-0.046,0.351c-0.92,0.705-1.903,1.381-2.933,2.016v0.588
		c0.924-0.622,1.798-1.278,2.615-1.964c0.047-0.039,0.104-0.059,0.161-0.059c0.071,0,0.142,0.03,0.192,0.089
		c0.089,0.106,0.075,0.263-0.03,0.352c-0.913,0.766-1.896,1.496-2.937,2.182v3.383c0.913-0.461,1.802-0.966,2.645-1.504
		c0.042-0.027,0.089-0.039,0.135-0.039c0.083,0,0.163,0.041,0.211,0.115c0.074,0.117,0.04,0.272-0.076,0.346
		c-0.893,0.569-1.836,1.103-2.804,1.586l-0.111,0.026v9.327h-6.583v0.622c0.337,0.01,0.677,0.016,1.018,0.016
		c1.166,0,2.354-0.061,3.558-0.183c0.011-0.001,0.021-0.002,0.032-0.002c0.134,0,0.229,0.098,0.243,0.225
		c0.014,0.137-0.086,0.26-0.224,0.274c-1.219,0.123-2.421,0.186-3.603,0.186c-0.343,0-0.685-0.005-1.024-0.016v1.007h-3.353v-1.289
		c-0.38-0.053-0.757-0.114-1.131-0.181c-0.235-0.042-0.468-0.087-0.698-0.135v1.605h-5.224v-2.129h-5.084
		c0.264,0.248,0.534,0.492,0.811,0.733c0.104,0.089,0.115,0.248,0.025,0.352l-0.189,0.086l-0.164-0.062
		c-0.416-0.361-0.818-0.732-1.206-1.11h-5.55c1.04,1.365,2.195,2.665,3.454,3.886c0.008,0.008,0.016,0.016,0.022,0.025h29.032
		V158.256"/>
	<path fill="#A85932" d="M130.306,198.553h-0.626c1.02,1.37,2.155,2.679,3.391,3.91h0.71c-0.007-0.009-0.014-0.017-0.022-0.025
		C132.502,201.218,131.346,199.918,130.306,198.553"/>
	<path fill="#A85932" d="M136.579,198.553h-0.723c0.388,0.378,0.79,0.749,1.206,1.11l0.164,0.062l0.189-0.086
		c0.091-0.105,0.08-0.263-0.025-0.352C137.113,199.045,136.843,198.801,136.579,198.553"/>
	<path fill="#A85932" d="M156.676,199.005c-0.01,0-0.021,0.001-0.032,0.002c-1.204,0.122-2.392,0.183-3.558,0.183
		c-0.341,0-0.681-0.005-1.018-0.016v0.5c0.34,0.01,0.681,0.016,1.024,0.016c1.182,0,2.384-0.063,3.603-0.186
		c0.137-0.015,0.237-0.137,0.224-0.274C156.905,199.104,156.81,199.005,156.676,199.005 M146.886,198.567v0.51
		c0.231,0.048,0.463,0.093,0.698,0.135c0.374,0.067,0.751,0.128,1.131,0.181v-0.505c-0.35-0.05-0.698-0.106-1.043-0.168
		C147.407,198.672,147.145,198.621,146.886,198.567"/>
	<path fill="#A85932" d="M158.651,165.254v0.5h0c0.135,0,0.246-0.107,0.25-0.243c0.004-0.139-0.106-0.253-0.244-0.257
		C158.656,165.254,158.653,165.254,158.651,165.254"/>
	<path fill="#A85932" d="M159.055,167.559c-0.134,0-0.269,0.001-0.404,0.004v0.5c0.136-0.003,0.272-0.004,0.407-0.004
		c0.801,0,1.583,0.044,2.339,0.134c0.005,0,0.01,0,0.016,0c0.125,0,0.247-0.088,0.261-0.219c0.017-0.136-0.081-0.261-0.219-0.277
		C160.679,167.605,159.877,167.559,159.055,167.559"/>
	<path fill="#A85932" d="M161.431,187.153c-0.046,0-0.093,0.013-0.135,0.039c-0.843,0.538-1.732,1.043-2.645,1.504v0.53l0.111-0.026
		c0.968-0.482,1.911-1.016,2.804-1.586c0.116-0.074,0.151-0.229,0.076-0.346C161.594,187.193,161.513,187.153,161.431,187.153"/>
	<path fill="#A85932" d="M161.426,182.69c-0.057,0-0.114,0.019-0.161,0.059c-0.816,0.686-1.691,1.342-2.615,1.964v0.601
		c1.042-0.686,2.024-1.416,2.937-2.182c0.105-0.089,0.119-0.246,0.03-0.352C161.569,182.72,161.498,182.69,161.426,182.69
		 M161.413,169.794h-0.005c-0.869,0.017-1.794,0.119-2.756,0.299v0.508c0.968-0.185,1.896-0.29,2.766-0.307
		c0.137-0.003,0.248-0.117,0.245-0.255C161.659,169.902,161.548,169.794,161.413,169.794"/>
	<path fill="#A85932" d="M161.434,170.722c-0.014,0-0.029,0.001-0.043,0.004c-0.872,0.143-1.791,0.362-2.739,0.65v0.523
		c0.978-0.303,1.924-0.532,2.819-0.679c0.136-0.022,0.229-0.151,0.207-0.287C161.657,170.811,161.556,170.722,161.434,170.722"/>
	<path fill="#A85932" d="M161.433,181.66c-0.053,0-0.107,0.017-0.153,0.051c-0.828,0.635-1.708,1.245-2.629,1.824v0.589
		c1.03-0.635,2.013-1.311,2.933-2.016c0.11-0.084,0.13-0.241,0.046-0.351C161.581,181.693,161.507,181.66,161.433,181.66"/>
	<path fill="#A85932" d="M161.432,179.568c-0.069,0-0.137,0.029-0.185,0.085c-0.704,0.793-1.588,1.556-2.595,2.246v0.602
		c1.159-0.762,2.173-1.62,2.969-2.516c0.091-0.103,0.083-0.262-0.021-0.353C161.551,179.589,161.491,179.568,161.432,179.568
		 M160.238,174.321c-0.492,0-1.025,0.054-1.587,0.16v0.504c0.558-0.11,1.085-0.167,1.568-0.167c0.42,0,0.806,0.043,1.148,0.131
		c0.02,0.005,0.04,0.007,0.06,0.007c0.112,0,0.215-0.073,0.245-0.186c0.034-0.133-0.046-0.27-0.18-0.305
		C161.119,174.368,160.697,174.321,160.238,174.321"/>
	<path fill="#B86131" d="M141.662,163.646c-2.658,1.272-4.981,2.929-6.886,4.881h2.465l4.42-1.38V163.646 M99.689,158.256h-5.652
		v5.829c1.106,2.004,2.476,4.219,4.164,6.575v-8.494h1.043l1.5,0.469c-0.589-1.165-0.993-2.148-1.258-2.868
		c-0.048-0.129,0.018-0.273,0.148-0.32c0.029-0.011,0.058-0.016,0.087-0.016c0.101,0,0.196,0.064,0.233,0.165
		c0.292,0.794,0.757,1.915,1.459,3.25l6.662,2.081c-0.505-1.07-1-2.099-1.398-2.92c-0.06-0.125-0.008-0.274,0.115-0.334
		c0.035-0.018,0.073-0.026,0.109-0.026c0.092,0,0.181,0.052,0.225,0.141c0.449,0.928,1.022,2.121,1.595,3.341l3.035,0.948
		c-0.011-0.099,0.038-0.198,0.131-0.248c0.037-0.019,0.077-0.029,0.116-0.029c0.09,0,0.177,0.048,0.222,0.132
		c0.062,0.117,0.124,0.234,0.185,0.349l1.53,0.478c-0.464-0.933-0.958-1.918-1.482-2.954c-0.062-0.124-0.014-0.274,0.109-0.336
		c0.037-0.018,0.076-0.027,0.114-0.027c0.091,0,0.178,0.049,0.222,0.136c0.541,1.07,1.118,2.221,1.696,3.387l5.007,1.564h14.476
		c2.056-2.199,4.618-4.05,7.578-5.434v-0.046l-4.976,1.538h-16.521L99.689,158.256"/>
	<path fill="#A85932" d="M141.662,163.093c-2.96,1.384-5.522,3.235-7.578,5.434h0.692c1.905-1.952,4.228-3.609,6.886-4.881V163.093"
		/>
	<path fill="#B86131" d="M94.304,185.922c-0.099,0-0.193-0.06-0.233-0.158c-0.051-0.128,0.012-0.273,0.141-0.325
		c0.344-0.136,0.695-0.263,1.051-0.379c0.026-0.009,0.052-0.013,0.078-0.013c0.105,0,0.203,0.068,0.237,0.173
		c0.043,0.131-0.028,0.272-0.16,0.315c-0.345,0.113-0.686,0.236-1.021,0.369L94.304,185.922 M95.005,184.857
		c-0.139,0-0.25-0.112-0.25-0.25c0-0.138,0.111-0.25,0.25-0.25h2.064c0.138,0,0.25,0.112,0.25,0.25c0,0.138-0.112,0.25-0.25,0.25
		H95.005 M94.037,165.107v27.069c1.262-1.009,2.661-1.81,4.164-2.372v-4.934c-0.143,0.022-0.286,0.046-0.429,0.072
		c-0.015,0.003-0.029,0.004-0.044,0.004c-0.117,0-0.225-0.085-0.246-0.206c-0.024-0.136,0.066-0.266,0.202-0.29
		c0.172-0.031,0.345-0.06,0.517-0.086v-12.85C96.535,169.234,95.163,167.079,94.037,165.107"/>
	<path fill="#A85932" d="M94.037,164.086v1.021c1.126,1.972,2.498,4.128,4.164,6.407v-0.853
		C96.513,168.305,95.143,166.09,94.037,164.086"/>
	<path fill="#A85932" d="M112.684,163.44c-0.038,0-0.077,0.009-0.114,0.027c-0.123,0.062-0.171,0.212-0.109,0.336
		c0.524,1.036,1.018,2.021,1.482,2.954l0.66,0.206c-0.578-1.167-1.155-2.317-1.696-3.387
		C112.862,163.49,112.775,163.44,112.684,163.44"/>
	<path fill="#A85932" d="M112.006,165.799c-0.039,0-0.079,0.009-0.116,0.029c-0.093,0.049-0.142,0.149-0.131,0.248l0.654,0.204
		c-0.061-0.115-0.122-0.231-0.185-0.349C112.182,165.846,112.095,165.799,112.006,165.799"/>
	<path fill="#A85932" d="M99.721,159.43c-0.029,0-0.058,0.005-0.087,0.016c-0.13,0.047-0.196,0.192-0.148,0.32
		c0.264,0.72,0.669,1.703,1.258,2.868l0.67,0.209c-0.702-1.334-1.167-2.455-1.459-3.25C99.917,159.494,99.823,159.43,99.721,159.43"
		/>
	<path fill="#A85932" d="M106.903,161.646c-0.037,0-0.074,0.008-0.109,0.026c-0.124,0.06-0.176,0.209-0.115,0.334
		c0.398,0.821,0.892,1.85,1.398,2.92l0.647,0.202c-0.573-1.22-1.146-2.412-1.595-3.341
		C107.084,161.698,106.995,161.646,106.903,161.646"/>
	<path fill="#B86131" d="M113.723,198.553h-1.443c0.98,1.117,1.821,2.437,2.472,3.91h0.714
		C114.99,201.071,114.407,199.762,113.723,198.553 M117.891,198.553h-3.596c0.666,1.214,1.234,2.522,1.699,3.91h3.615
		C119.158,201.073,118.578,199.765,117.891,198.553 M119.588,198.553h-1.125c0.669,1.216,1.232,2.524,1.671,3.91h0.551
		C120.427,201.117,120.059,199.81,119.588,198.553 M98.201,190.339c-1.51,0.588-2.91,1.427-4.164,2.485v6.68
		c0.01-0.034,0.02-0.067,0.03-0.101c0.032-0.108,0.132-0.18,0.239-0.18c0.024,0,0.048,0.004,0.072,0.011
		c0.133,0.039,0.208,0.179,0.168,0.311c-0.205,0.69-0.375,1.41-0.509,2.153v0.765h0.987c0.446-1.44,1.09-2.74,1.917-3.866
		c0.049-0.067,0.126-0.103,0.202-0.103c0.051,0,0.103,0.016,0.146,0.049c0.111,0.082,0.136,0.238,0.054,0.349
		c-0.765,1.043-1.369,2.244-1.796,3.571h18.655c-0.684-1.492-1.569-2.814-2.597-3.91H98.201v-5.235
		c-0.6,0.546-1.157,1.19-1.661,1.927l-0.206,0.109l-0.142-0.044c-0.113-0.078-0.143-0.234-0.064-0.348
		c0.619-0.906,1.315-1.678,2.073-2.308V190.339"/>
	<path fill="#A85932" d="M112.28,198.553h-0.674c1.028,1.096,1.913,2.418,2.597,3.91h0.549
		C114.101,200.99,113.26,199.67,112.28,198.553"/>
	<path fill="#A85932" d="M97.143,198.494c-0.077,0-0.153,0.036-0.202,0.103c-0.827,1.127-1.472,2.427-1.917,3.866h0.524
		c0.427-1.328,1.031-2.528,1.796-3.571c0.082-0.111,0.057-0.268-0.054-0.349C97.246,198.51,97.194,198.494,97.143,198.494"/>
	<path fill="#A85932" d="M114.294,198.553h-0.571c0.683,1.209,1.267,2.518,1.743,3.91h0.527
		C115.529,201.075,114.96,199.767,114.294,198.553"/>
	<path fill="#A85932" d="M98.201,192.655c-0.759,0.63-1.454,1.402-2.073,2.308c-0.078,0.114-0.049,0.269,0.064,0.348l0.142,0.044
		l0.206-0.109c0.505-0.737,1.061-1.382,1.661-1.927V192.655"/>
	<path fill="#A85932" d="M94.305,199.223c-0.106,0-0.207,0.072-0.239,0.18c-0.01,0.034-0.02,0.067-0.03,0.101v2.195
		c0.133-0.742,0.303-1.463,0.509-2.153c0.04-0.132-0.036-0.272-0.168-0.311C94.353,199.227,94.329,199.223,94.305,199.223"/>
	<path fill="#A85932" d="M118.463,198.553h-0.572c0.687,1.212,1.267,2.52,1.718,3.91h0.525
		C119.695,201.077,119.132,199.769,118.463,198.553 M98.201,189.803c-1.503,0.562-2.901,1.363-4.164,2.372v0.648
		c1.253-1.057,2.653-1.897,4.164-2.485V189.803"/>
	<path fill="#A85932" d="M120.121,198.553h-0.533c0.471,1.257,0.839,2.564,1.096,3.91h0.509
		C120.941,201.119,120.582,199.812,120.121,198.553"/>
	<path fill="#A85932" d="M98.201,184.364c-0.172,0.026-0.345,0.055-0.517,0.086c-0.136,0.024-0.226,0.154-0.202,0.29
		c0.022,0.12,0.129,0.206,0.246,0.206c0.014,0,0.029-0.001,0.044-0.004c0.143-0.026,0.286-0.05,0.429-0.072V184.364"/>
	<polyline fill="#B86131" points="148.715,160.867 146.886,161.433 146.886,165.515 148.715,164.944 148.715,160.867 	"/>
	<path fill="#A85932" d="M95.341,185.047c-0.026,0-0.052,0.004-0.078,0.013c-0.355,0.115-0.706,0.242-1.051,0.379
		c-0.129,0.051-0.192,0.197-0.141,0.325c0.039,0.099,0.133,0.158,0.233,0.158l0.092-0.018c0.335-0.133,0.676-0.256,1.021-0.369
		c0.132-0.042,0.203-0.184,0.16-0.315C95.544,185.115,95.446,185.047,95.341,185.047"/>
	<path fill="#A85932" d="M97.069,184.357h-2.064c-0.139,0-0.25,0.112-0.25,0.25c0,0.138,0.111,0.25,0.25,0.25h2.064
		c0.138,0,0.25-0.112,0.25-0.25C97.319,184.469,97.207,184.357,97.069,184.357"/>
	<path fill="#BB6637" d="M141.964,162.954l-0.301,0.093v0.046C141.762,163.046,141.863,163,141.964,162.954 M146.886,161.433
		l-2.512,0.776c0.008,0.013,0.015,0.028,0.02,0.043c0.047,0.13-0.022,0.272-0.152,0.319c-0.891,0.319-1.752,0.678-2.58,1.074v3.501
		l5.224-1.631V161.433"/>
	<path fill="#B06038" d="M144.374,162.209l-2.41,0.745c-0.101,0.046-0.201,0.092-0.301,0.139v0.553
		c0.828-0.396,1.689-0.755,2.58-1.074c0.13-0.047,0.198-0.19,0.152-0.319C144.389,162.237,144.382,162.223,144.374,162.209"/>
	<path fill="#BB6637" d="M144.793,198.553h-3.13v2.129h5.224v-1.605C146.166,198.928,145.468,198.753,144.793,198.553
		 M146.886,198.553h-0.064c0.021,0.005,0.043,0.009,0.064,0.014V198.553"/>
	<path fill="#B06038" d="M146.822,198.553h-2.029c0.675,0.2,1.374,0.375,2.093,0.524v-0.51
		C146.865,198.562,146.843,198.557,146.822,198.553"/>
	<path fill="#BB6637" d="M148.715,199.393v1.289h3.353v-1.007C150.927,199.64,149.808,199.546,148.715,199.393 M152.068,198.553
		h-3.353v0.335c1.092,0.155,2.211,0.251,3.353,0.286V198.553 M152.068,160.771h-3.04l-0.313,0.097v4.077l3.353-1.047V160.771"/>
	<path fill="#B06038" d="M148.715,198.888v0.505c1.093,0.153,2.212,0.247,3.353,0.282v-0.5
		C150.926,199.139,149.807,199.044,148.715,198.888"/>
	<g>
		<path fill="#D9BCA3" d="M103.403,137.792h-3.519c-0.321,0-0.632,0.113-0.877,0.319l-2.482,2.083
			c-0.309,0.259-0.488,0.642-0.488,1.046v4.217l7.157-6.112L103.403,137.792z"/>
		<path fill="#0A2232" d="M168.614,100.722c-3.49,7.85-9.95,13.97-17.72,16.8c-1.63,0.6-3.2,1.059-4.73,1.41
			c1.52,1.14,2.69,2.7,3.35,4.51c0.93,2.55,0.76,5.4-0.48,7.82l-1.73,3.4l-1.7,3.97c-0.62,1.44-1.57,2.69-2.75,3.68
			c0.66,0.9,1.2,2,1.51,3.36c0.18,0.8,0.26,1.55,0.24,2.26c-0.03,1.57-0.47,2.94-1.01,4.13c-0.4,0.86-0.86,1.63-1.27,2.32
			c-0.33,0.55-0.74,1.24-0.93,1.63c-0.14,0.32-0.31,0.76-0.49,1.22c-0.79,2.089-2.27,5.99-6.66,7.59c-4.4,1.6-8.04-0.43-9.99-1.52
			c-0.44-0.25-0.85-0.48-1.17-0.62c-0.38-0.18-1.17-0.46-1.76-0.66c-2.27-0.78-5.38-1.85-7.18-5.35c-0.65-1.28-0.94-2.5-1-3.63
			c-1.41-0.03-2.81-0.35-4.09-0.98l-0.21-0.1l-3.28-1.69l-4.051-1.72c-0.42-0.18-0.82-0.38-1.21-0.62
			c-1.92-1.16-3.41-2.96-4.18-5.09c-0.92-2.57-0.73-5.42,0.52-7.84l1.98-3.83l1.37-3.35c0.77-1.87,2.09-3.44,3.76-4.52
			c-4.061-8.55-8.44-17.8-12.24-25.83c-0.92,0.85-3.771,3.47-3.771,3.47l-7.74,7.11l-7.67-21.07l4.55-4.12
			c0.03-0.03,2.19-1.98,5.521-5.04l-0.04-0.11c-0.19-0.42-0.32-0.74-0.42-0.95c-0.24-0.41-1.26-1.42-5.16-3.21
			c-1.97-0.91-4.94-2.28-6.3-6.01c-1.58-4.34,0.3-7.52,2.11-10.59c0.99-1.67,2.21-3.74,3.4-6.3c1.05-2.25,1.98-4.94,2.72-7.11
			c1.67-4.88,2.99-8.74,7.6-10.42c4.62-1.68,8.11,0.43,12.53,3.09c1.96,1.18,4.4,2.66,6.65,3.71c2.56,1.19,4.83,1.99,6.65,2.63
			c1.98,0.7,3.99,1.41,5.64,2.76c9.6-8.79,9.979-8.93,11.62-9.52c2.41-0.88,4.92-0.73,7.23,0.36c3.829,1.8,4.94,5.27,5.609,7.1
			l0.07,0.2c1.2,1.24,4.83,4.4,7.43,6.43c6.88,5.37,15.48,12.03,19.07,21.88C173.524,84.711,171.324,94.651,168.614,100.722"/>
		<path fill="#C8581A" d="M131.841,158.23c-1.378,0.502-2.673-0.221-4.172-1.057c-0.525-0.293-1.069-0.596-1.615-0.851
			c-0.718-0.335-1.633-0.65-2.44-0.928c-1.753-0.604-2.718-0.936-3.224-1.923c-0.527-1.027-0.143-1.887,0.493-3.314
			c0.386-0.866,1.562-3.503,1.345-4.3c-0.206-0.426-1.546-3.243-3.588-7.541l-0.93,1.827l-1.794,4.184
			c-0.305,0.711-0.896,1.27-1.622,1.534c-0.733,0.267-1.552,0.216-2.246-0.141l-3.505-1.802l-4.279-1.823
			c-0.717-0.305-1.279-0.901-1.543-1.634c-0.263-0.733-0.21-1.55,0.147-2.242l2.123-4.101l1.491-3.635
			c0.299-0.73,0.897-1.304,1.639-1.574c0.74-0.269,1.563-0.215,2.26,0.149l3.325,1.73l1.702,0.721
			c-6.341-13.36-15.667-33.033-21.642-45.696c-4.801,4.48-8.402,7.791-8.444,7.828L83,95.776l-2.462-6.764l1.05-0.949
			c0.041-0.038,3.914-3.544,9.254-8.471c-0.855-1.868-1.507-3.394-1.967-4.474c-0.252-0.591-0.441-1.038-0.572-1.318
			c-1.58-3.393-6.312-5.572-8.587-6.619c-1.52-0.7-2.283-1.052-2.641-2.035c-0.448-1.229,0.1-2.155,1.561-4.631
			c1.003-1.699,2.377-4.026,3.715-6.896c1.206-2.588,2.198-5.48,2.994-7.804c1.387-4.05,1.906-5.565,3.371-6.098
			c1.465-0.533,2.836,0.294,6.502,2.505c2.104,1.269,4.723,2.848,7.31,4.055c2.871,1.338,5.418,2.238,7.279,2.894
			c2.711,0.957,3.725,1.315,4.173,2.544c0.358,0.982,0,1.742-0.715,3.256c-0.653,1.384-1.743,3.697-2.265,6.114
			c19.987-18.405,20.254-18.502,20.805-18.703c0.638-0.232,1.327-0.202,1.938,0.085c1.187,0.559,1.622,1.779,2.082,3.072l0.133,0.37
			c1.019,2.8,5.172,6.042,9.568,9.474c6.491,5.066,13.848,10.81,16.743,18.762c3.913,10.752,2.141,18.833-0.035,23.721
			c-2.726,6.122-7.729,10.886-13.728,13.069c-13.073,4.758-21.663-0.637-24.377-8.095c-2.973-8.168-0.014-15.958,7.035-18.523
			c2.521-0.918,4.47-0.376,5.661,0.241c1.503,0.778,2.662,2.114,3.261,3.76c1.092,3,0.131,6.79-3.82,8.227
			c-2.275,0.828-3.969,0.354-4.988-0.189c-0.633-0.338-1.155-0.775-1.582-1.243c-0.438,1.135-0.61,2.79,0.214,5.052
			c1.977,5.432,7.804,7.608,14.17,5.291c2.703-0.984,4.749-3.216,5.761-6.285c1.079-3.27,0.903-7.187-0.496-11.03
			c-2.871-7.888-10.011-12.762-16.312-17.062c-5.21-3.556-9.709-6.628-11.267-10.91l-0.083-0.221
			c-1.373,1.238-4.178,3.811-9.829,9.066c2.714,10.271,10.564,40.138,15.396,58.545l0.982-1.897l1.491-3.634
			c0.299-0.73,0.897-1.304,1.638-1.574c0.739-0.269,1.562-0.215,2.259,0.149l3.326,1.73l4.436,1.88
			c0.716,0.304,1.279,0.897,1.544,1.627c0.266,0.73,0.216,1.545-0.137,2.237l-1.84,3.613l-1.793,4.184
			c-0.305,0.712-0.896,1.27-1.622,1.535c-0.734,0.267-1.553,0.215-2.247-0.142l-3.506-1.804l-2.767-1.178
			c1.242,4.734,2.06,7.861,2.187,8.359c0.337,0.703,2.946,1.959,3.803,2.371c1.414,0.68,2.268,1.091,2.525,2.223
			c0.246,1.078-0.278,1.956-1.229,3.552c-0.434,0.726-0.926,1.551-1.26,2.266c-0.255,0.548-0.476,1.131-0.691,1.696
			C133.744,156.346,133.219,157.728,131.841,158.23"/>
		<path fill="#EA6E29" d="M160.292,74.861c6.326,17.381-2.104,30.307-12.505,34.093c-12.439,4.527-19.565-1.026-21.681-6.838
			c-2.658-7.304-0.071-13.698,5.778-15.827c6.011-2.188,9.182,6.266,3.664,8.275c-4.366,1.589-5.551-3.204-5.551-3.204
			s-4.461,2.93-2.062,9.52c2.398,6.59,9.452,9.247,16.866,6.548c6.838-2.489,9.761-11.114,6.523-20.011
			c-5.44-14.946-24.491-19.487-27.579-27.972c-0.664-1.823-1.263-2.572-2.046-2.287c-0.248,0.09-5.607,5.035-12.199,11.17
			c3.515,13.275,19.126,72.718,19.664,74.83c0.58,2.276,6.211,4.083,6.316,4.542s-1.489,2.625-2.344,4.46
			c-0.856,1.835-1.301,3.832-2.015,4.092c-0.713,0.259-2.343-0.982-4.178-1.838c-1.835-0.856-4.466-1.484-4.681-1.903
			c-0.215-0.419,2.898-5.408,1.879-7.525c-0.817-1.696-20.583-43.334-29.703-62.681c-5.876,5.503-10.538,9.787-10.538,9.787
			l-0.9-2.471c0,0,4.406-3.988,10.397-9.526c-1.715-3.64-2.757-6.267-3.186-7.186c-2.563-5.504-10.933-7.868-11.158-8.486
			c-0.225-0.618,2.56-4.243,5.206-9.918c2.646-5.674,4.189-12.455,5.177-12.815c0.989-0.36,6.53,3.843,12.204,6.489
			c5.674,2.646,10.137,3.633,10.363,4.251c0.222,0.611-4.556,7.651-3.138,13.478c11.794-10.869,23.302-21.424,23.661-21.554
			c0.638-0.232,1.006,1.033,1.455,2.269C136.799,54.368,155.535,61.791,160.292,74.861 M117.321,134.605l-4.487-1.902l-0.05-0.024
			l-3.375-1.756c-0.369-0.192-0.823-0.026-0.98,0.359l-1.515,3.691l-0.027,0.057l-2.15,4.156c-0.189,0.365-0.028,0.814,0.35,0.975
			l4.325,1.842l0.046,0.022l3.55,1.826c0.364,0.188,0.811,0.027,0.973-0.35l1.811-4.226l0.02-0.042l1.862-3.655
			C117.861,135.211,117.699,134.765,117.321,134.605 M140.563,126.146l-4.486-1.901l-0.051-0.024l-3.375-1.756
			c-0.368-0.192-0.822-0.026-0.98,0.359l-1.515,3.691l-0.026,0.057l-2.15,4.156c-0.189,0.365-0.028,0.814,0.351,0.975l4.325,1.842
			l0.047,0.022l3.549,1.826c0.365,0.188,0.811,0.026,0.973-0.35l1.811-4.226l0.02-0.042l1.861-3.656
			C141.103,126.752,140.94,126.306,140.563,126.146"/>
		<path fill="#06141D" d="M144.604,147.931h-7.019c-0.062,0.805-0.543,1.612-1.283,2.853c-0.243,0.407-0.505,0.845-0.746,1.277
			h8.038C144.134,150.871,144.574,149.502,144.604,147.931"/>
		<path fill="#75340F" d="M137.585,147.931h-2.134c-0.226,0.72-1.506,2.535-2.268,4.13h2.373c0.241-0.432,0.503-0.87,0.746-1.277
			C137.042,149.543,137.524,148.736,137.585,147.931"/>
		<path fill="#06141D" d="M121.8,147.931h-21.496c0.39,0.24,0.79,0.44,1.21,0.62l4.051,1.72l3.28,1.69l0.21,0.1h11.127
			c0.097-0.548,0.364-1.146,0.702-1.904C121.079,149.716,121.482,148.815,121.8,147.931"/>
		<path fill="#75340F" d="M124.016,147.931H121.8c-0.318,0.883-0.72,1.785-0.917,2.226c-0.338,0.758-0.605,1.356-0.702,1.904h2.175
			C122.658,151.256,123.533,149.558,124.016,147.931"/>
		<path fill="#894018" d="M135.451,147.931h-11.435c-0.483,1.627-1.359,3.325-1.66,4.13h10.827
			C133.945,150.466,135.224,148.652,135.451,147.931"/>
	</g>
	<path fill="#C8581A" d="M88.219,152.749v55.904h80.414v-55.904c0-0.378-0.306-0.684-0.684-0.684H88.902
		C88.525,152.066,88.219,152.372,88.219,152.749z M160.815,200.463H96.037v-40.207h3.351l20.476,6.329h17.125l20.476-6.329h3.351
		V200.463z"/>
	<g>
		<defs>
			<path id="SVGID_1_" d="M88.219,152.75v55.904h80.414V152.75c0-0.378-0.306-0.684-0.684-0.684H88.903
				C88.525,152.066,88.219,152.372,88.219,152.75 M160.815,200.463H96.037v-40.207h3.351l20.476,6.329h17.125l20.476-6.329h3.351
				V200.463"/>
		</defs>
		<clipPath id="SVGID_2_">
			<use xlink:href="#SVGID_1_"  overflow="visible"/>
		</clipPath>
		<rect x="76.461" y="151.565" clip-path="url(#SVGID_2_)" fill="#BF5119" width="109.163" height="1"/>
		<rect x="76.461" y="155.917" clip-path="url(#SVGID_2_)" fill="#BF5119" width="109.163" height="1"/>
		<rect x="76.461" y="160.271" clip-path="url(#SVGID_2_)" fill="#BF5119" width="109.163" height="1"/>
		<rect x="76.461" y="164.623" clip-path="url(#SVGID_2_)" fill="#BF5119" width="109.163" height="1"/>
		<rect x="76.461" y="168.977" clip-path="url(#SVGID_2_)" fill="#BF5119" width="109.163" height="1"/>
		<rect x="76.461" y="173.329" clip-path="url(#SVGID_2_)" fill="#BF5119" width="109.163" height="1"/>
		<rect x="76.461" y="177.683" clip-path="url(#SVGID_2_)" fill="#BF5119" width="109.163" height="1"/>
		<rect x="76.461" y="182.036" clip-path="url(#SVGID_2_)" fill="#BF5119" width="109.163" height="1"/>
		<rect x="76.461" y="186.389" clip-path="url(#SVGID_2_)" fill="#BF5119" width="109.163" height="1"/>
		<rect x="76.461" y="190.742" clip-path="url(#SVGID_2_)" fill="#BF5119" width="109.163" height="1"/>
		<rect x="76.461" y="195.094" clip-path="url(#SVGID_2_)" fill="#BF5119" width="109.163" height="1"/>
		<rect x="76.461" y="199.448" clip-path="url(#SVGID_2_)" fill="#BF5119" width="109.163" height="1"/>
		<rect x="76.461" y="203.8" clip-path="url(#SVGID_2_)" fill="#BF5119" width="109.163" height="1"/>
		<rect x="76.461" y="208.154" clip-path="url(#SVGID_2_)" fill="#BF5119" width="109.163" height="1"/>
	</g>
	<path fill="#BF5119" d="M167.949,152.066c0.377,0,0.684,0.306,0.684,0.684v55.904H88.219v-55.904c0-0.378,0.306-0.684,0.684-0.684
		H167.949 M119.863,166.585l-20.476-6.329h-3.351v40.207h64.778v-40.207h-3.351l-20.476,6.329H119.863 M167.949,151.066H88.902
		c-0.928,0-1.684,0.755-1.684,1.684v55.904v1h1h80.414h1v-1v-55.904C169.633,151.821,168.878,151.066,167.949,151.066z
		 M157.615,161.256h2.2v38.207H97.037v-38.207h2.2l20.332,6.284l0.144,0.045h0.151h17.125h0.151l0.144-0.045L157.615,161.256z"/>
	<path fill="#F2D1B5" d="M99.393,199.104v11.49c0,0.761-0.618,1.367-1.367,1.367h-14.39c-0.761,0-1.378-0.606-1.378-1.367v-11.269
		c0-0.276,0.088-0.551,0.243-0.772h16.33C99.139,198.553,99.393,198.795,99.393,199.104z"/>
	<path fill="#D9BCA3" d="M99.387,152.066v9.247H82.262v-8.603c0-0.408,0.182-0.795,0.497-1.054l5.446-4.487
		c0.247-0.204,0.557-0.315,0.878-0.315h5.302l-4.741,4.007c-0.486,0.411-0.195,1.205,0.441,1.205H99.387z"/>
	<path fill="#D9BCA3" d="M157.464,152.066v10.424h15.754c0.757,0,1.371-0.614,1.371-1.371v-8.409c0-0.408-0.182-0.795-0.497-1.054
		l-5.446-4.487c-0.247-0.204-0.558-0.315-0.878-0.315h-5.302l4.741,4.007c0.486,0.411,0.196,1.205-0.441,1.205H157.464z"/>
	<path fill="#F2D1B5" d="M99.393,152.616v12.302c0,0.309-0.254,0.551-0.562,0.551H83.636c-0.761,0-1.378-0.607-1.378-1.367v-11.387
		c0-0.232,0.055-0.452,0.177-0.651H98.83C99.139,152.065,99.393,152.318,99.393,152.616z"/>
	<path fill="#F2D1B5" d="M174.594,152.715v11.548c0,0.761-0.617,1.367-1.378,1.367h-15.195c-0.309,0-0.562-0.243-0.562-0.551
		v-12.463c0-0.298,0.254-0.551,0.562-0.551h16.396C174.539,152.263,174.594,152.484,174.594,152.715z"/>
	<path fill="#F2D1B5" d="M128.426,187.309c0,0,8.563,0,8.563-4.716c0-4.716,0-16.008,0-16.008h-17.125c0,0,0,11.293,0,16.008
		C119.863,187.309,128.426,187.309,128.426,187.309z"/>
	<path fill="#0A2232" d="M130.02,177.504c0.95-0.551,1.59-1.576,1.59-2.753c0-1.758-1.426-3.184-3.184-3.184
		s-3.184,1.426-3.184,3.184c0,1.177,0.64,2.202,1.59,2.753l-1.4,4.247c-0.094,0.284,0.118,0.576,0.416,0.576h5.156
		c0.299,0,0.51-0.292,0.416-0.576L130.02,177.504z"/>
	<path fill="#E5C2A8" d="M128.426,187.309v0.5c0.024-0.001,2.193,0.002,4.414-0.607c1.111-0.307,2.241-0.765,3.129-1.497
		c0.888-0.724,1.526-1.775,1.519-3.112c0-2.358,0-6.36,0-9.773s0-6.229,0-6.236v-0.5h-18.125v0.5c0,0,0,11.293,0,16.008
		c-0.006,1.337,0.632,2.388,1.519,3.112c1.334,1.093,3.205,1.588,4.752,1.849c1.547,0.255,2.773,0.255,2.791,0.255V187.309v-0.5
		c0,0-0.122,0-0.348-0.009c-0.792-0.03-2.807-0.177-4.565-0.802c-0.879-0.31-1.687-0.739-2.249-1.295
		c-0.562-0.56-0.896-1.215-0.901-2.11c0-2.358,0-6.36,0-9.773s0-6.229,0-6.236h-0.5v0.5h17.125v-0.5h-0.5c0,0,0,11.293,0,16.008
		c-0.006,1.021-0.439,1.739-1.156,2.341c-1.075,0.896-2.815,1.396-4.279,1.633c-0.731,0.121-1.393,0.182-1.869,0.212
		c-0.238,0.015-0.43,0.023-0.561,0.026c-0.131,0.004-0.197,0.004-0.197,0.004V187.309z"/>
	<path fill="#F2D1B5" d="M174.594,199.325v11.269c0,0.761-0.617,1.367-1.378,1.367h-14.39c-0.75,0-1.367-0.606-1.367-1.367v-11.49
		c0-0.309,0.254-0.551,0.562-0.551h16.33C174.506,198.773,174.594,199.049,174.594,199.325z"/>
</g>
</svg>
