<svg xmlns="http://www.w3.org/2000/svg" xmlns:xlink="http://www.w3.org/1999/xlink" version="1.1" id="Layer_1" x="0px" y="0px" width="100px" height="100px" viewBox="5.0 -10.0 100.0 135.0" enable-background="new 0 0 100 100" xml:space="preserve">
<path d="M79.279,29.704c-3.686-2.606-7.372-5.213-11.058-7.82c0.059-4.619,0.118-9.237,0.177-13.856  c0.026-2.063-2.609-3.931-4.453-2.555c-3.774,2.817-7.55,5.634-11.324,8.451c-4.419-1.498-8.838-2.997-13.257-4.495  c-1.256-0.426-2.262-0.017-2.891,0.75c-0.767,0.628-1.176,1.634-0.749,2.891c1.498,4.418,2.996,8.837,4.494,13.255  c-2.816,3.775-5.634,7.55-8.45,11.325c-1.376,1.844,0.492,4.479,2.555,4.453c3.52-0.045,7.039-0.09,10.559-0.135  c-7.221,13.909-14.44,27.818-21.661,41.726c-1.182,2.277-2.363,4.553-3.545,6.83c-1.756,3.382,3.352,6.375,5.11,2.986  c7.56-14.562,15.119-29.123,22.678-43.686c0.89-1.713,1.779-3.426,2.668-5.139c1.956,2.766,3.912,5.532,5.868,8.297  c1.465,2.072,4.608,1.871,5.409-0.706c1.356-4.365,2.713-8.729,4.07-13.093c4.364-1.357,8.729-2.714,13.094-4.07  C81.15,34.312,81.352,31.169,79.279,29.704z M64.449,33.307c-1.08,0.335-2.604,0.598-3.427,1.42  c-0.782,0.783-1.03,2.175-1.351,3.206c-0.516,1.657-1.03,3.314-1.546,4.971c-0.207,0.665-0.413,1.33-0.62,1.995  c-0.308-0.436-0.616-0.871-0.924-1.307c-1.02-1.442-2.04-2.884-3.06-4.326c-0.635-0.898-1.383-2.312-2.344-2.875  c-1.004-0.588-2.367-0.393-3.482-0.379c-1.735,0.022-3.471,0.044-5.206,0.067c-0.743,0.01-1.487,0.019-2.231,0.029  c0.437-0.586,0.874-1.172,1.312-1.758c1.056-1.415,2.112-2.831,3.169-4.247c0.56-0.75,1.37-1.556,1.626-2.486  c0.324-1.18-0.269-2.364-0.639-3.457c-0.558-1.643-1.114-3.287-1.672-4.93c-0.252-0.742-0.504-1.484-0.755-2.227  c0.64,0.217,1.279,0.434,1.919,0.651c1.673,0.567,3.346,1.135,5.019,1.702c0.894,0.303,1.921,0.819,2.89,0.819  c1.264,0,2.145-0.89,3.087-1.594c1.392-1.038,2.782-2.076,4.173-3.113c0.673-0.501,1.345-1.003,2.018-1.505  c-0.009,0.636-0.017,1.272-0.024,1.908c-0.022,1.766-0.045,3.532-0.068,5.298c-0.015,1.167-0.239,2.664,0.376,3.714  c0.533,0.91,1.832,1.606,2.686,2.21c1.417,1.001,2.834,2.004,4.25,3.006c0.524,0.37,1.048,0.741,1.572,1.111  c-0.563,0.174-1.124,0.349-1.687,0.524C67.822,32.258,66.136,32.782,64.449,33.307z"/>
<text x="0.0" y="117.5" font-size="5.0" font-weight="bold" font-family="Helvetica Neue, Helvetica, Arial-Unicode, Arial, Sans-serif" fill="#000000">Created by Krish</text><text x="0.0" y="122.5" font-size="5.0" font-weight="bold" font-family="Helvetica Neue, Helvetica, Arial-Unicode, Arial, Sans-serif" fill="#000000">from the Noun Project</text></svg>