<svg xmlns="http://www.w3.org/2000/svg" xmlns:xlink="http://www.w3.org/1999/xlink" version="1.1" id="Layer_1" x="0px" y="0px" width="100px" height="100px" viewBox="5.0 -10.0 100.0 135.0" enable-background="new 0 0 100 100" xml:space="preserve">
<g>
	<path d="M90,79.5h-2.5V77v-3c0-1.381-1.119-2.5-2.5-2.5s-2.5,1.119-2.5,2.5v0.5h-3v-49h3V26c0,1.381,1.119,2.5,2.5,2.5   s2.5-1.119,2.5-2.5v-3v-2.5H90c1.381,0,2.5-1.119,2.5-2.5s-1.119-2.5-2.5-2.5h-2.5V13v-3c0-1.381-1.119-2.5-2.5-2.5   s-2.5,1.119-2.5,2.5v0.5h-65V10c0-1.381-1.119-2.5-2.5-2.5s-2.5,1.119-2.5,2.5v3v2.5H10c-1.381,0-2.5,1.119-2.5,2.5   s1.119,2.5,2.5,2.5h2.5V23v3c0,1.381,1.119,2.5,2.5,2.5s2.5-1.119,2.5-2.5v-0.5h3v49h-3V74c0-1.381-1.119-2.5-2.5-2.5   s-2.5,1.119-2.5,2.5v3v2.5H10c-1.381,0-2.5,1.119-2.5,2.5s1.119,2.5,2.5,2.5h2.5V87v3c0,1.381,1.119,2.5,2.5,2.5s2.5-1.119,2.5-2.5   v-0.5h65V90c0,1.381,1.119,2.5,2.5,2.5s2.5-1.119,2.5-2.5v-3v-2.5H90c1.381,0,2.5-1.119,2.5-2.5S91.381,79.5,90,79.5z M17.5,15.5   h65v5h-65V15.5z M25.5,25.5h49v49h-49V25.5z M17.5,84.5v-5h65v5H17.5z"/>
	<path d="M33,37.5h34c1.381,0,2.5-1.119,2.5-2.5s-1.119-2.5-2.5-2.5H33c-1.381,0-2.5,1.119-2.5,2.5S31.619,37.5,33,37.5z"/>
	<path d="M33,47.5h7c1.381,0,2.5-1.119,2.5-2.5s-1.119-2.5-2.5-2.5h-7c-1.381,0-2.5,1.119-2.5,2.5S31.619,47.5,33,47.5z"/>
	<path d="M67,42.5H50c-1.381,0-2.5,1.119-2.5,2.5s1.119,2.5,2.5,2.5h17c1.381,0,2.5-1.119,2.5-2.5S68.381,42.5,67,42.5z"/>
	<path d="M33,57.5h17c1.381,0,2.5-1.119,2.5-2.5s-1.119-2.5-2.5-2.5H33c-1.381,0-2.5,1.119-2.5,2.5S31.619,57.5,33,57.5z"/>
	<path d="M40,62.5h-7c-1.381,0-2.5,1.119-2.5,2.5s1.119,2.5,2.5,2.5h7c1.381,0,2.5-1.119,2.5-2.5S41.381,62.5,40,62.5z"/>
	<path d="M67,52.5h-7c-1.381,0-2.5,1.119-2.5,2.5s1.119,2.5,2.5,2.5h7c1.381,0,2.5-1.119,2.5-2.5S68.381,52.5,67,52.5z"/>
	<path d="M67,62.5H50c-1.381,0-2.5,1.119-2.5,2.5s1.119,2.5,2.5,2.5h17c1.381,0,2.5-1.119,2.5-2.5S68.381,62.5,67,62.5z"/>
</g>
<text x="0.0" y="117.5" font-size="5.0" font-weight="bold" font-family="Helvetica Neue, Helvetica, Arial-Unicode, Arial, Sans-serif" fill="#000000">Created by Yorlmar Campos</text><text x="0.0" y="122.5" font-size="5.0" font-weight="bold" font-family="Helvetica Neue, Helvetica, Arial-Unicode, Arial, Sans-serif" fill="#000000">from the Noun Project</text></svg>