<svg xmlns="http://www.w3.org/2000/svg" xmlns:xlink="http://www.w3.org/1999/xlink" version="1.1" x="0px" y="0px" width="100px" height="100px" viewBox="5.0 -10.0 100.0 135.0" enable-background="new 0 0 100 100" xml:space="preserve">
<g id="Captions">
</g>
<g id="Your_Icon">
	<path fill="none" d="M71.986,61H27.961L9.932,81.155c0,0-3.848,15.845,12.255,15.845c8.435,0,18.821,0,25.067,0   c0,0,2.167,0,5.539,0c6.21,0,16.511,0,24.929,0c16.103,0,12.255-15.845,12.255-15.845L71.986,61z"/>
	<path d="M94.644,80.526L59,37.573V4.439c2-0.452,3.001-1.059,3.001-1.726c0-1.396-5.444-2.528-12.026-2.528   S38.126,1.316,38.126,2.712c0,0.62,0.874,1.188,2.874,1.628v33.233L5.348,80.526c0,0-4.355,19.474,13.901,19.474   c51.559,0,60.843,0,61.485,0C98.991,100,94.644,80.526,94.644,80.526z M52.793,20.716c1.33,0,2.408,1.078,2.408,2.408   s-1.078,2.408-2.408,2.408s-2.408-1.078-2.408-2.408S51.463,20.716,52.793,20.716z M55.562,46.002c0,2.593-2.102,4.696-4.696,4.696   s-4.696-2.102-4.696-4.696s2.102-4.696,4.696-4.696S55.562,43.408,55.562,46.002z M48.699,26.496c1.995,0,3.612,1.617,3.612,3.612   s-1.617,3.612-3.612,3.612s-3.612-1.617-3.612-3.612S46.704,26.496,48.699,26.496z M38.103,51.299c1.33,0,2.408,1.078,2.408,2.408   c0,1.33-1.078,2.408-2.408,2.408s-2.408-1.078-2.408-2.408C35.695,52.378,36.773,51.299,38.103,51.299z M77.722,97   c-8.418,0-18.719,0-24.929,0c-3.372,0-5.539,0-5.539,0c-6.246,0-16.632,0-25.067,0C6.084,97,9.932,81.155,9.932,81.155L27.961,61   h44.026l17.99,20.155C89.977,81.155,93.825,97,77.722,97z"/>
</g>
<text x="0.0" y="117.5" font-size="5.0" font-weight="bold" font-family="Helvetica Neue, Helvetica, Arial-Unicode, Arial, Sans-serif" fill="#000000">Created by Joshua Wold</text><text x="0.0" y="122.5" font-size="5.0" font-weight="bold" font-family="Helvetica Neue, Helvetica, Arial-Unicode, Arial, Sans-serif" fill="#000000">from the Noun Project</text></svg>