<svg xmlns="http://www.w3.org/2000/svg" xmlns:xlink="http://www.w3.org/1999/xlink" version="1.1" id="Your_Icon" x="0px" y="0px" width="100px" height="100px" viewBox="5.0 -10.0 100.0 135.0" enable-background="new 0 0 100 100" xml:space="preserve">
<g>
	<g>
		<g>
			<g>
			</g>
		</g>
		<g>
		</g>
	</g>
</g>
<path fill="#000000" d="M91.016,54.432c-0.002-0.052,0-0.104-0.006-0.155c-0.007-0.051-0.021-0.099-0.033-0.147  c-0.009-0.042-0.015-0.082-0.029-0.123c-0.024-0.074-0.06-0.146-0.096-0.217c-0.008-0.012-0.01-0.025-0.017-0.038L84.849,43.31  c-0.095-0.166-0.22-0.304-0.36-0.415c-0.002-0.001-0.004-0.002-0.006-0.003c-0.146-0.113-0.313-0.196-0.489-0.244  c-0.002,0-0.003-0.001-0.003-0.001l-25.359-6.88l0.966-3.281c0.002-0.008,0-0.015,0.002-0.023c0.041-0.144,0.054-0.293,0.046-0.446  c0-0.024-0.002-0.047-0.003-0.072c-0.012-0.119-0.033-0.238-0.078-0.356c-0.007-0.022-0.021-0.041-0.029-0.062  c-0.011-0.023-0.022-0.044-0.033-0.067c-0.068-0.136-0.149-0.259-0.251-0.363c-0.01-0.009-0.021-0.017-0.03-0.026  c-0.114-0.11-0.243-0.203-0.388-0.269c-0.004-0.002-0.005-0.005-0.009-0.007l-10.951-4.995c-0.086-0.04-0.175-0.069-0.266-0.091  c-0.05-0.011-0.1-0.014-0.15-0.02c-0.042-0.006-0.085-0.015-0.127-0.017c-0.037-0.001-0.072,0.005-0.109,0.007  c-0.057,0.003-0.113,0.003-0.168,0.012c-0.002,0-0.002,0-0.002,0c-0.088,0.015-0.177,0.038-0.262,0.069L14.896,37.671  c-0.003,0.001-0.005,0.005-0.009,0.006c-0.168,0.064-0.323,0.159-0.458,0.282c-0.003,0.004-0.005,0.009-0.011,0.013  c-0.127,0.121-0.238,0.268-0.315,0.439L9.11,49.358c-0.07,0.15-0.109,0.312-0.122,0.478c-0.002,0.011-0.004,0.021-0.006,0.032  c-0.007,0.145,0.011,0.293,0.05,0.44c0.006,0.024,0.011,0.048,0.019,0.072c0.007,0.022,0.009,0.045,0.019,0.067  c0.033,0.089,0.087,0.162,0.135,0.24c0.024,0.041,0.041,0.085,0.07,0.124c0.096,0.127,0.212,0.235,0.344,0.321  c0.005,0.004,0.009,0.011,0.015,0.015l35.829,22.958c0.017,0.011,0.035,0.014,0.052,0.024c0.052,0.029,0.104,0.055,0.157,0.077  c0.031,0.014,0.062,0.025,0.096,0.037c0.032,0.011,0.061,0.024,0.094,0.033c0.117,0.031,0.238,0.05,0.36,0.051  c0,0,0.002,0.001,0.003,0.001h0.002l0,0l0,0h0.002c0,0,0,0,0.002,0c0.052,0,0.104-0.003,0.155-0.008  c0.076-0.01,0.147-0.028,0.218-0.048c0.017-0.004,0.031-0.005,0.048-0.01c0.019-0.007,0.035-0.014,0.054-0.021  c0.005-0.003,0.013-0.001,0.019-0.004c0.022-0.008,0.041-0.022,0.062-0.032c0.066-0.028,0.129-0.06,0.19-0.097  c0.015-0.01,0.033-0.018,0.048-0.027c0.002-0.002,0.004-0.002,0.006-0.003c0.018-0.013,0.033-0.03,0.052-0.044  c0.041-0.031,0.079-0.063,0.116-0.099c0.019-0.019,0.041-0.034,0.059-0.054c0.013-0.014,0.024-0.03,0.037-0.045  c0.027-0.033,0.055-0.068,0.081-0.104c0.022-0.031,0.044-0.062,0.064-0.094c0.009-0.017,0.019-0.032,0.028-0.049  c0.017-0.031,0.03-0.062,0.044-0.094c0.019-0.042,0.037-0.084,0.052-0.127c0.005-0.017,0.015-0.032,0.02-0.05  c0-0.003,0.004-0.006,0.004-0.01l3.245-11.031l6.213,10.84c0.004,0.009,0.014,0.013,0.017,0.021c0.017,0.026,0.031,0.055,0.05,0.08  c0.03,0.044,0.065,0.083,0.101,0.123c0.023,0.028,0.048,0.059,0.073,0.085c0.033,0.03,0.068,0.058,0.102,0.085  c0.017,0.013,0.031,0.025,0.048,0.038c0.002,0.001,0.004,0.002,0.006,0.003c0.017,0.013,0.031,0.029,0.05,0.041  c0.002,0.002,0.006,0.002,0.008,0.003c0.102,0.068,0.216,0.119,0.334,0.158c0.021,0.006,0.041,0.016,0.061,0.021  c0.004,0.001,0.008,0.004,0.012,0.006c0.013,0.003,0.023,0.002,0.037,0.005c0.106,0.025,0.218,0.044,0.334,0.044l0,0  c0.027,0,0.054-0.001,0.081-0.002c0.068-0.004,0.135-0.018,0.201-0.032c0.022-0.004,0.045-0.004,0.066-0.01  c0.104-0.026,0.203-0.064,0.296-0.112c0.013-0.007,0.025-0.016,0.039-0.021c0.007-0.005,0.015-0.006,0.021-0.01l31.327-17.957  c0.038-0.021,0.069-0.051,0.104-0.075c0.024-0.017,0.047-0.031,0.068-0.049c0.107-0.085,0.2-0.181,0.275-0.288  c0.013-0.017,0.022-0.036,0.033-0.055c0.13-0.201,0.211-0.431,0.228-0.669C91.021,54.511,91.016,54.472,91.016,54.432z   M79.941,44.487l-6.239,3.577l-3.577-6.24L79.941,44.487z M70.241,47.734l-9.817-2.664l6.241-3.577L70.241,47.734z M16.095,40.879  l6.544,2.985l-9.53,3.56L16.095,40.879z M54.53,31.954L45,35.513l2.986-6.544L54.53,31.954z M41.084,40.004l3.096,27.426  L28.542,44.688L41.084,40.004z M29.055,41.469l2.985-6.544l6.546,2.985L29.055,41.469z M41.587,36.161l-6.543-2.985l9.53-3.56  L41.587,36.161z M25.642,42.116l-6.545-2.985l9.53-3.56L25.642,42.116z M25.801,45.712l15.276,22.214L13.552,50.287L25.801,45.712z   M46.847,65.771l-3.025-26.79l12.252-4.576L46.847,65.771z M51.941,58.509l3.453-11.743l1.123,19.729L51.941,58.509z M57.273,43.607  l-0.628-1.093l1.186-4.025l5.684,1.542L57.273,43.607z M58.276,47.428l12.63,3.426L59.451,68.085L58.276,47.428z M62.785,68.195  l11.006-16.558l12.136,3.292L62.785,68.195z M76.854,49.528l6.238-3.577l3.578,6.24L76.854,49.528z"/>
<text x="0.0" y="117.5" font-size="5.0" font-weight="bold" font-family="Helvetica Neue, Helvetica, Arial-Unicode, Arial, Sans-serif" fill="#000000">Created by Lucas Almeida</text><text x="0.0" y="122.5" font-size="5.0" font-weight="bold" font-family="Helvetica Neue, Helvetica, Arial-Unicode, Arial, Sans-serif" fill="#000000">from the Noun Project</text></svg>