<svg xmlns="http://www.w3.org/2000/svg" xmlns:xlink="http://www.w3.org/1999/xlink" version="1.1" id="Layer_1" x="0px" y="0px" width="100px" height="100px" viewBox="5.0 -10.0 100.0 135.0" enable-background="new 0 0 100 100" xml:space="preserve">
<g>
	<path d="M51.263,23.333c2.549,0.615,6.502,2.458,7.93,6.265c0.83,2.209,0.774,7.062,0.586,10.747   c-0.674,3.906-2.234,6.754-4.662,8.482c-3.25,2.313-7.322,2.075-9.288,1.774c-2.683-1.312-4.266-5.301-4.953-8.557   c-0.804-3.805-0.316-5.789-0.316-5.789V34.83c-0.714-1.903-0.079-7.533,0.872-9.437c0.951-1.903,3.974-1.934,4.837-2.617   c1.208-0.954,2.833-5.08,3.309-6.334c-9.906,1.245-12.379,9.59-12.862,11.806c-1.181,1.126-2.151,3.148-1.163,5.336   c-0.354,0.455-0.71,1.078-0.852,1.861c-0.118,0.654-0.114,1.613,0.443,2.729c-0.984,1.906-3.084,7.236-0.784,14.809   c2.218,7.308,1.275,9.263,0.666,10.154c-1.493,0.588-6.417,2.816-8.482,7.354c-0.591,0.262-1.244,0.684-1.859,1.282V83.65h50.771   V63.17c-1.479-2.172-3.204-4.521-4.703-6.068c-0.412-2.369-2.453-14.255-2.522-18.408c-0.039-2.341-0.129-7.824-2.129-12.791   c-2.328-5.787-6.595-9.064-12.392-9.555h-3.14C46.873,22.421,50.437,23.134,51.263,23.333z M60.541,61.039   c0,0.639,0.248,1.215,0.649,1.646c-0.348,0.307-0.571,0.748-0.571,1.248c0,0.227,0.047,0.44,0.129,0.641   c-0.519,0.484-0.842,1.172-0.842,1.938c0,0.465,0.12,0.9,0.329,1.281c-0.538,0.438-0.887,1.104-0.887,1.852   c0,0.383,0.094,0.744,0.256,1.064c-2.313,1.068-4.934,4.326-4.934,4.326c-5.232,0.396-17.208-1.508-17.684-5.473   c-0.477-3.965,10.864-12.449,10.864-12.449c0-0.488-0.272-2.703-0.48-4.324c0.296,0.016,0.606,0.025,0.928,0.025   c2.354,0,5.341-0.476,7.968-2.338c1.258-0.892,2.314-2.023,3.174-3.38c0.175,5.104,1.338,11.286,1.338,11.286l0.767,0.697   C60.937,59.52,60.541,60.232,60.541,61.039z"/>
	<path d="M88.426,92.723c0.271-0.178,0.531-0.387,0.771-0.627c1.862-1.861,1.862-4.881,0-6.74c-0.523-0.524-1.14-0.896-1.794-1.125   c0.797-2.676,2.265-9.848-0.647-20.201c1.785-0.305,3.146-1.854,3.146-3.727c0-1.139-0.504-2.158-1.299-2.852   c1.83-1.365,3.088-4.188,3.088-7.452c0-3.263-1.258-6.085-3.088-7.45c0.795-0.694,1.299-1.713,1.299-2.851   c0-1.871-1.359-3.421-3.146-3.726c2.582-9.182,1.724-15.86,0.938-19.121c0.547-0.231,1.059-0.566,1.505-1.012   c1.862-1.862,1.862-4.88,0-6.742c-0.239-0.24-0.5-0.449-0.772-0.627c0.424-0.2,0.826-0.477,1.186-0.835   c1.494-1.493,1.628-3.782,0.299-5.11c-1.327-1.329-3.616-1.195-5.11,0.298c-0.356,0.357-0.633,0.761-0.834,1.185   c-0.179-0.274-0.388-0.533-0.627-0.773c-1.86-1.861-4.881-1.861-6.741,0c-0.341,0.34-0.613,0.72-0.83,1.123   c-1.939-0.692-6.103-1.654-11.951-0.189c-0.56-1.394-1.918-2.38-3.512-2.38c-1.14,0-2.156,0.502-2.853,1.297   C56.086,1.257,53.265,0,50,0c-3.263,0-6.084,1.257-7.45,3.086c-0.693-0.794-1.714-1.296-2.851-1.296   c-1.593,0-2.954,0.986-3.512,2.38c-5.852-1.464-10.013-0.503-11.952,0.189c-0.215-0.403-0.49-0.783-0.83-1.123   c-1.862-1.861-4.88-1.861-6.742,0c-0.24,0.24-0.449,0.5-0.626,0.773c-0.2-0.424-0.479-0.828-0.834-1.185   c-1.494-1.494-3.782-1.627-5.111-0.298c-1.328,1.329-1.193,3.617,0.3,5.11c0.356,0.358,0.761,0.635,1.185,0.835   c-0.275,0.179-0.534,0.387-0.775,0.628c-1.86,1.861-1.86,4.88,0,6.742c0.446,0.445,0.958,0.783,1.505,1.014   c-0.784,3.262-1.645,9.939,0.938,19.119c-1.785,0.305-3.146,1.855-3.146,3.726c0,1.138,0.502,2.157,1.298,2.851   C9.565,43.916,8.31,46.739,8.31,50c0,3.264,1.257,6.085,3.087,7.451c-0.794,0.693-1.298,1.713-1.298,2.852   c0,1.871,1.359,3.422,3.146,3.727c-2.914,10.355-1.446,17.525-0.648,20.203c-0.654,0.229-1.271,0.601-1.795,1.123   c-1.86,1.861-1.86,4.881,0,6.742c0.24,0.238,0.5,0.447,0.773,0.627c-0.424,0.199-0.827,0.478-1.185,0.834   c-1.493,1.494-1.628,3.781-0.3,5.109c1.329,1.33,3.617,1.195,5.111-0.299c0.356-0.355,0.634-0.76,0.834-1.184   c0.178,0.272,0.387,0.532,0.627,0.771c1.861,1.862,4.88,1.862,6.742,0c0.625-0.623,1.035-1.379,1.239-2.179   c2.083,0.671,6.074,1.421,11.543,0.052c0.558,1.396,1.918,2.381,3.512,2.381c1.137,0,2.157-0.502,2.851-1.297   c1.366,1.831,4.188,3.087,7.45,3.087c3.264,0,6.085-1.256,7.451-3.086c0.693,0.795,1.713,1.297,2.851,1.297   c1.595,0,2.955-0.984,3.513-2.381c5.47,1.369,9.461,0.619,11.543-0.051c0.205,0.799,0.615,1.555,1.24,2.178   c1.86,1.863,4.879,1.863,6.739,0c0.24-0.238,0.449-0.498,0.627-0.771c0.201,0.424,0.479,0.828,0.834,1.185   c1.494,1.494,3.783,1.629,5.111,0.299c1.329-1.328,1.194-3.614-0.3-5.108C89.252,93.199,88.851,92.922,88.426,92.723z    M78.64,86.949H21.495V13.273H78.64V86.949L78.64,86.949z"/>
</g>
<text x="0.0" y="117.5" font-size="5.0" font-weight="bold" font-family="Helvetica Neue, Helvetica, Arial-Unicode, Arial, Sans-serif" fill="#000000">Created by Cornelius Danger</text><text x="0.0" y="122.5" font-size="5.0" font-weight="bold" font-family="Helvetica Neue, Helvetica, Arial-Unicode, Arial, Sans-serif" fill="#000000">from the Noun Project</text></svg>