<?xml version="1.0" encoding="UTF-8" standalone="no"?>
<svg
   xmlns:dc="http://purl.org/dc/elements/1.1/"
   xmlns:cc="http://creativecommons.org/ns#"
   xmlns:rdf="http://www.w3.org/1999/02/22-rdf-syntax-ns#"
   xmlns:svg="http://www.w3.org/2000/svg"
   xmlns="http://www.w3.org/2000/svg"
   xmlns:sodipodi="http://sodipodi.sourceforge.net/DTD/sodipodi-0.dtd"
   xmlns:inkscape="http://www.inkscape.org/namespaces/inkscape"
   version="1.1"
   id="Layer_1"
   x="0px"
   y="0px"
   viewBox="4.5 -9 63 70.47"
   enable-background="new 0 0 90 90"
   xml:space="preserve"
   height="58"
   width="70"
   inkscape:version="0.48.4 r9939"
   sodipodi:docname="regen.svg"><metadata
     id="metadata17"><rdf:RDF><cc:Work
         rdf:about=""><dc:format>image/svg+xml</dc:format><dc:type
           rdf:resource="http://purl.org/dc/dcmitype/StillImage" /></cc:Work></rdf:RDF></metadata><defs
     id="defs15" /><sodipodi:namedview
     pagecolor="#ffffff"
     bordercolor="#666666"
     borderopacity="1"
     objecttolerance="10"
     gridtolerance="10"
     guidetolerance="10"
     inkscape:pageopacity="0"
     inkscape:pageshadow="2"
     inkscape:window-width="1366"
     inkscape:window-height="702"
     id="namedview13"
     showgrid="false"
     inkscape:zoom="2.36"
     inkscape:cx="-25.211864"
     inkscape:cy="50"
     inkscape:window-x="0"
     inkscape:window-y="27"
     inkscape:window-maximized="1"
     inkscape:current-layer="Layer_1" /><g
     id="g3"
     transform="translate(-9.42,-18.523306)"
     style="fill:#ffffff;fill-opacity:1"><path
       d="m 32.782,23.195 c 9.52,-5.33 21.81,-3.958 29.896,4.128 3.75,3.75 6.051,8.405 6.916,13.268 0.701,3.942 0.455,8.019 -0.74,11.864 l -1.83,-7.066 -9.68,2.507 6.268,24.202 24.202,-6.269 -2.508,-9.68 -7.874,2.04 C 78.031,56.713 78.52,55.204 78.909,53.674 81.858,42.099 78.809,29.312 69.75,20.253 59.056,9.559 43.167,7.232 30.211,13.269 l 0.758,2.925 1.813,7.001 z"
       id="path5"
       inkscape:connector-curvature="0"
       style="fill:#ffffff;fill-opacity:1" /><path
       d="m 57.992,66.355 c -9.619,5.851 -22.363,4.629 -30.67,-3.678 -4.684,-4.684 -7.111,-10.78 -7.293,-16.93 -0.097,-3.278 0.445,-6.569 1.627,-9.673 l 0.752,2.901 -0.449,-1.732 1.054,4.071 0.671,2.591 9.68,-2.507 -6.268,-24.202 -24.201,6.27 2.508,9.68 7.424,-1.923 c -0.635,1.483 -1.161,3 -1.582,4.542 -3.195,11.722 -0.2,24.778 9.007,33.984 10.912,10.912 27.232,13.102 40.327,6.592 l -0.84,-3.242 -1.747,-6.744 z"
       id="path7"
       inkscape:connector-curvature="0"
       style="fill:#ffffff;fill-opacity:1" /></g></svg>