<?xml version="1.0" encoding="UTF-8" standalone="no"?>
<svg
   xmlns:dc="http://purl.org/dc/elements/1.1/"
   xmlns:cc="http://creativecommons.org/ns#"
   xmlns:rdf="http://www.w3.org/1999/02/22-rdf-syntax-ns#"
   xmlns:svg="http://www.w3.org/2000/svg"
   xmlns="http://www.w3.org/2000/svg"
   xmlns:sodipodi="http://sodipodi.sourceforge.net/DTD/sodipodi-0.dtd"
   xmlns:inkscape="http://www.inkscape.org/namespaces/inkscape"
   version="1.1"
   x="0px"
   y="0px"
   width="100px"
   height="100px"
   viewBox="5.0 -10.0 100.0 135.0"
   enable-background="new 0 0 100 100"
   xml:space="preserve"
   id="svg2"
   inkscape:version="0.48.4 r9939"
   sodipodi:docname="small-objects.svg"><metadata
     id="metadata18"><rdf:RDF><cc:Work
         rdf:about=""><dc:format>image/svg+xml</dc:format><dc:type
           rdf:resource="http://purl.org/dc/dcmitype/StillImage" /><dc:title /></cc:Work></rdf:RDF></metadata><defs
     id="defs16" /><sodipodi:namedview
     pagecolor="#ffffff"
     bordercolor="#666666"
     borderopacity="1"
     objecttolerance="10"
     gridtolerance="10"
     guidetolerance="10"
     inkscape:pageopacity="0"
     inkscape:pageshadow="2"
     inkscape:window-width="1366"
     inkscape:window-height="702"
     id="namedview14"
     showgrid="false"
     inkscape:zoom="4.3826094"
     inkscape:cx="-10.712653"
     inkscape:cy="54.83711"
     inkscape:window-x="0"
     inkscape:window-y="27"
     inkscape:window-maximized="1"
     inkscape:current-layer="svg2"
     showguides="true"
     inkscape:guide-bbox="true" /><g
     id="Captions" /><g
     id="Your_Icon"
     transform="matrix(0.55608457,0,0,0.55608457,8.1126939,52.481323)"
     style="fill:#880a5b;fill-opacity:1"><path
       d="M 71.986,61 H 27.961 L 9.932,81.155 c 0,0 -3.848,15.845 12.255,15.845 8.435,0 18.821,0 25.067,0 0,0 2.167,0 5.539,0 6.21,0 16.511,0 24.929,0 16.103,0 12.255,-15.845 12.255,-15.845 L 71.986,61 z"
       id="path6"
       inkscape:connector-curvature="0"
       style="fill:#880a5b;fill-opacity:1" /><path
       d="M 94.644,80.526 59,37.573 V 4.439 C 61,3.987 62.001,3.38 62.001,2.713 62.001,1.317 56.557,0.185 49.975,0.185 43.393,0.185 38.126,1.316 38.126,2.712 38.126,3.332 39,3.9 41,4.34 V 37.573 L 5.348,80.526 c 0,0 -4.355,19.474 13.901,19.474 51.559,0 60.843,0 61.485,0 18.257,0 13.91,-19.474 13.91,-19.474 z M 52.793,20.716 c 1.33,0 2.408,1.078 2.408,2.408 0,1.33 -1.078,2.408 -2.408,2.408 -1.33,0 -2.408,-1.078 -2.408,-2.408 0,-1.33 1.078,-2.408 2.408,-2.408 z m 2.769,25.286 c 0,2.593 -2.102,4.696 -4.696,4.696 -2.594,0 -4.696,-2.102 -4.696,-4.696 0,-2.594 2.102,-4.696 4.696,-4.696 2.594,0 4.696,2.102 4.696,4.696 z M 48.699,26.496 c 1.995,0 3.612,1.617 3.612,3.612 0,1.995 -1.617,3.612 -3.612,3.612 -1.995,0 -3.612,-1.617 -3.612,-3.612 0,-1.995 1.617,-3.612 3.612,-3.612 z M 38.103,51.299 c 1.33,0 2.408,1.078 2.408,2.408 0,1.33 -1.078,2.408 -2.408,2.408 -1.33,0 -2.408,-1.078 -2.408,-2.408 0,-1.329 1.078,-2.408 2.408,-2.408 z M 77.722,97 c -8.418,0 -18.719,0 -24.929,0 -3.372,0 -5.539,0 -5.539,0 -6.246,0 -16.632,0 -25.067,0 C 6.084,97 9.932,81.155 9.932,81.155 L 27.961,61 h 44.026 l 17.99,20.155 c 0,0 3.848,15.845 -12.255,15.845 z"
       id="path8"
       inkscape:connector-curvature="0"
       style="fill:#880a5b;fill-opacity:1" /></g><g
     transform="matrix(0.6779558,0.0884315,-0.0884315,0.6779558,53.131026,13.195395)"
     id="g3"
     style="fill:#880a5b;fill-opacity:1"><path
       inkscape:connector-curvature="0"
       d="M 90,79.5 H 87.5 V 77 74 c 0,-1.381 -1.119,-2.5 -2.5,-2.5 -1.381,0 -2.5,1.119 -2.5,2.5 v 0.5 h -3 v -49 h 3 V 26 c 0,1.381 1.119,2.5 2.5,2.5 1.381,0 2.5,-1.119 2.5,-2.5 V 23 20.5 H 90 c 1.381,0 2.5,-1.119 2.5,-2.5 0,-1.381 -1.119,-2.5 -2.5,-2.5 H 87.5 V 13 10 C 87.5,8.619 86.381,7.5 85,7.5 83.619,7.5 82.5,8.619 82.5,10 v 0.5 h -65 V 10 C 17.5,8.619 16.381,7.5 15,7.5 13.619,7.5 12.5,8.619 12.5,10 v 3 2.5 H 10 c -1.381,0 -2.5,1.119 -2.5,2.5 0,1.381 1.119,2.5 2.5,2.5 h 2.5 v 2.5 3 c 0,1.381 1.119,2.5 2.5,2.5 1.381,0 2.5,-1.119 2.5,-2.5 v -0.5 h 3 v 49 h -3 V 74 c 0,-1.381 -1.119,-2.5 -2.5,-2.5 -1.381,0 -2.5,1.119 -2.5,2.5 v 3 2.5 H 10 c -1.381,0 -2.5,1.119 -2.5,2.5 0,1.381 1.119,2.5 2.5,2.5 h 2.5 v 2.5 3 c 0,1.381 1.119,2.5 2.5,2.5 1.381,0 2.5,-1.119 2.5,-2.5 v -0.5 h 65 V 90 c 0,1.381 1.119,2.5 2.5,2.5 1.381,0 2.5,-1.119 2.5,-2.5 V 87 84.5 H 90 c 1.381,0 2.5,-1.119 2.5,-2.5 0,-1.381 -1.119,-2.5 -2.5,-2.5 z m -72.5,-64 h 65 v 5 h -65 v -5 z m 8,10 h 49 v 49 h -49 v -49 z m -8,59 v -5 h 65 v 5 h -65 z"
       id="path5"
       style="fill:#880a5b;fill-opacity:1" /><path
       inkscape:connector-curvature="0"
       d="m 33,37.5 h 34 c 1.381,0 2.5,-1.119 2.5,-2.5 0,-1.381 -1.119,-2.5 -2.5,-2.5 H 33 c -1.381,0 -2.5,1.119 -2.5,2.5 0,1.381 1.119,2.5 2.5,2.5 z"
       id="path7"
       style="fill:#880a5b;fill-opacity:1" /><path
       inkscape:connector-curvature="0"
       d="m 33,47.5 h 7 c 1.381,0 2.5,-1.119 2.5,-2.5 0,-1.381 -1.119,-2.5 -2.5,-2.5 h -7 c -1.381,0 -2.5,1.119 -2.5,2.5 0,1.381 1.119,2.5 2.5,2.5 z"
       id="path9"
       style="fill:#880a5b;fill-opacity:1" /><path
       inkscape:connector-curvature="0"
       d="M 67,42.5 H 50 c -1.381,0 -2.5,1.119 -2.5,2.5 0,1.381 1.119,2.5 2.5,2.5 h 17 c 1.381,0 2.5,-1.119 2.5,-2.5 0,-1.381 -1.119,-2.5 -2.5,-2.5 z"
       id="path11"
       style="fill:#880a5b;fill-opacity:1" /><path
       inkscape:connector-curvature="0"
       d="m 33,57.5 h 17 c 1.381,0 2.5,-1.119 2.5,-2.5 0,-1.381 -1.119,-2.5 -2.5,-2.5 H 33 c -1.381,0 -2.5,1.119 -2.5,2.5 0,1.381 1.119,2.5 2.5,2.5 z"
       id="path13"
       style="fill:#880a5b;fill-opacity:1" /><path
       inkscape:connector-curvature="0"
       d="m 40,62.5 h -7 c -1.381,0 -2.5,1.119 -2.5,2.5 0,1.381 1.119,2.5 2.5,2.5 h 7 c 1.381,0 2.5,-1.119 2.5,-2.5 0,-1.381 -1.119,-2.5 -2.5,-2.5 z"
       id="path15"
       style="fill:#880a5b;fill-opacity:1" /><path
       inkscape:connector-curvature="0"
       d="m 67,52.5 h -7 c -1.381,0 -2.5,1.119 -2.5,2.5 0,1.381 1.119,2.5 2.5,2.5 h 7 c 1.381,0 2.5,-1.119 2.5,-2.5 0,-1.381 -1.119,-2.5 -2.5,-2.5 z"
       id="path17"
       style="fill:#880a5b;fill-opacity:1" /><path
       inkscape:connector-curvature="0"
       d="M 67,62.5 H 50 c -1.381,0 -2.5,1.119 -2.5,2.5 0,1.381 1.119,2.5 2.5,2.5 h 17 c 1.381,0 2.5,-1.119 2.5,-2.5 0,-1.381 -1.119,-2.5 -2.5,-2.5 z"
       id="path19"
       style="fill:#880a5b;fill-opacity:1" /></g><path
     inkscape:connector-curvature="0"
     d="m 49.188231,25.490072 c -2.827098,-1.998757 -5.654197,-3.998281 -8.481295,-5.997805 0.04525,-3.542694 0.09051,-7.084621 0.135756,-10.627314 0.01994,-1.5822864 -2.001058,-3.0150104 -3.415374,-1.9596414 -2.894593,2.1605904 -5.79072,4.3211814 -8.685313,6.4817714 -3.389297,-1.14894 -6.778594,-2.298647 -10.167889,-3.447587 -0.963331,-0.326735 -1.734915,-0.01304 -2.217348,0.575237 -0.588275,0.481665 -0.901971,1.25325 -0.57447,2.217347 1.148941,3.38853 2.297882,6.777827 3.446821,10.166357 -2.159824,2.89536 -4.321181,5.790721 -6.481004,8.68608 -1.055369,1.414316 0.377355,3.435316 1.959641,3.415374 2.699779,-0.03451 5.398792,-0.06904 8.098569,-0.103543 -5.538381,10.667964 -11.07523,21.335927 -16.613612,32.003124 -0.906575,1.746419 -1.812381,3.492072 -2.718956,5.238492 -1.346821,2.593935 2.570928,4.889515 3.919284,2.290211 5.79839,-11.168804 11.596012,-22.33684 17.393634,-33.506409 0.682614,-1.313842 1.364462,-2.627684 2.04631,-3.941525 1.500218,2.121474 3.000436,4.242948 4.500654,6.363656 1.12363,1.589189 3.534257,1.435024 4.14861,-0.54149 1.040029,-3.347879 2.080824,-6.694993 3.12162,-10.042106 3.347113,-1.040795 6.694993,-2.081591 10.042872,-3.121619 1.976515,-0.614354 2.131446,-3.02498 0.54149,-4.14861 z m -11.374354,2.763439 c -0.828342,0.256939 -1.997223,0.458655 -2.62845,1.089116 -0.599781,0.600547 -0.789992,1.668187 -1.036194,2.458947 -0.395763,1.270889 -0.789992,2.54178 -1.185755,3.812671 -0.158766,0.510043 -0.316764,1.020086 -0.47553,1.530131 -0.23623,-0.334405 -0.472461,-0.668043 -0.708692,-1.002448 -0.782322,-1.105989 -1.564644,-2.211978 -2.346967,-3.317967 -0.487034,-0.68875 -1.060737,-1.773264 -1.797807,-2.205075 -0.770051,-0.450986 -1.815449,-0.301425 -2.670634,-0.290686 -1.330716,0.01688 -2.662198,0.03375 -3.99291,0.05139 -0.569869,0.0077 -1.140505,0.01457 -1.71114,0.02224 0.335172,-0.449452 0.670343,-0.898904 1.006282,-1.348356 0.809933,-1.085281 1.619866,-2.171329 2.430566,-3.257375 0.429511,-0.575237 1.050767,-1.193426 1.247114,-1.90672 0.248503,-0.905039 -0.206318,-1.813147 -0.490102,-2.651459 -0.427976,-1.260153 -0.854418,-2.521072 -1.282395,-3.781226 -0.193279,-0.5691 -0.386559,-1.138202 -0.579069,-1.70807 0.490866,0.166435 0.980968,0.332871 1.471837,0.499306 1.283162,0.434879 2.566325,0.870525 3.849487,1.305405 0.685682,0.232395 1.473374,0.628158 2.21658,0.628158 0.969466,0 1.645178,-0.682614 2.367676,-1.22257 1.06764,-0.796128 2.133746,-1.592256 3.200619,-2.387618 0.516179,-0.384258 1.031592,-0.769283 1.547771,-1.154309 -0.0069,0.487801 -0.01304,0.975603 -0.01841,1.463404 -0.01687,1.354491 -0.03451,2.708984 -0.05215,4.063475 -0.01151,0.895069 -0.183309,2.043242 0.288385,2.848574 0.408802,0.697954 1.405113,1.231773 2.060116,1.695032 1.086814,0.767749 2.173629,1.537032 3.259677,2.30555 0.401899,0.283783 0.803798,0.568333 1.205697,0.852118 -0.431812,0.133454 -0.862089,0.267677 -1.2939,0.401899 -1.294667,0.401899 -2.5878,0.803797 -3.8817,1.206463 z"
     id="path3"
     style="fill:#880a5b;fill-opacity:1" /></svg>