<?xml version="1.0" encoding="UTF-8" standalone="no"?>
<svg
   xmlns:dc="http://purl.org/dc/elements/1.1/"
   xmlns:cc="http://creativecommons.org/ns#"
   xmlns:rdf="http://www.w3.org/1999/02/22-rdf-syntax-ns#"
   xmlns:svg="http://www.w3.org/2000/svg"
   xmlns="http://www.w3.org/2000/svg"
   xmlns:sodipodi="http://sodipodi.sourceforge.net/DTD/sodipodi-0.dtd"
   xmlns:inkscape="http://www.inkscape.org/namespaces/inkscape"
   version="1.1"
   x="0px"
   y="0px"
   width="100px"
   height="100px"
   viewBox="0 0 100 100"
   enable-background="new 0 0 100 100"
   xml:space="preserve"
   id="svg2"
   inkscape:version="0.48.4 r9939"
   sodipodi:docname="weapon-armor.svg"><metadata
     id="metadata14"><rdf:RDF><cc:Work
         rdf:about=""><dc:format>image/svg+xml</dc:format><dc:type
           rdf:resource="http://purl.org/dc/dcmitype/StillImage" /></cc:Work></rdf:RDF></metadata><defs
     id="defs12" /><sodipodi:namedview
     pagecolor="#ffffff"
     bordercolor="#666666"
     borderopacity="1"
     objecttolerance="10"
     gridtolerance="10"
     guidetolerance="10"
     inkscape:pageopacity="0"
     inkscape:pageshadow="2"
     inkscape:window-width="1366"
     inkscape:window-height="702"
     id="namedview10"
     showgrid="false"
     inkscape:zoom="2.36"
     inkscape:cx="-27.754237"
     inkscape:cy="50"
     inkscape:window-x="0"
     inkscape:window-y="27"
     inkscape:window-maximized="1"
     inkscape:current-layer="svg2" /><g
     id="Captions" /><g
     id="Your_Icon"
     transform="matrix(0.72514145,0,0,0.72514145,12.435743,20.0767)"
     style="fill:#333333;fill-opacity:1"><g
       id="g6"
       style="fill:#333333;fill-opacity:1"><path
         d="m 50.978,97.204 c -0.409,0 -0.818,-0.071 -1.208,-0.215 C 16.621,84.802 14.08,53.773 13.988,52.459 13.983,52.378 13.98,52.296 13.98,52.215 V 8.56 c 0,-1.7 1.222,-3.154 2.896,-3.448 0.696,-0.122 17.243,-2.983 34.102,-2.983 16.86,0 33.408,2.862 34.104,2.983 1.675,0.293 2.896,1.748 2.896,3.448 v 43.655 c 0,0.081 -0.003,0.163 -0.009,0.244 -0.092,1.314 -2.633,32.344 -35.784,44.53 -0.39,0.144 -0.798,0.215 -1.207,0.215 z M 20.979,52.075 c 0.183,2.104 2.93,27.236 29.998,37.885 C 78.02,79.323 80.79,54.233 80.979,52.073 V 11.55 C 75.523,10.738 63.175,9.129 50.978,9.129 38.782,9.129 26.436,10.738 20.98,11.55 v 40.525 z"
         id="path8"
         inkscape:connector-curvature="0"
         style="fill:#333333;fill-opacity:1" /></g></g><polygon
     style="fill:#333333;fill-opacity:1"
     transform="matrix(0.82991161,0,0,0.82991161,8.8346682,6.7157948)"
     points="99.895,0.105 76.053,9.189 29.375,58.359 36.328,63.672 41.64,70.627 90.811,23.947 "
     id="polygon3" /><path
     style="fill:#333333;fill-opacity:1"
     inkscape:connector-curvature="0"
     d="M 44.305921,80.255092 48.285348,76.277327 37.015148,61.527307 22.26513,50.255448 18.286532,54.236534 27.79981,63.74981 16.613431,74.935359 c -1.991787,-0.09046 -4.013452,0.603345 -5.53551,2.125404 -2.8723248,2.870664 -2.8756448,7.528958 -8.3e-4,10.402942 2.874814,2.875644 7.534767,2.875644 10.407922,0.0017 1.522057,-1.522057 2.211714,-3.543721 2.121254,-5.535509 l 11.187208,-11.187209 9.512446,9.512447 z"
     id="path5" /></svg>